<?xml version="1.0" encoding="utf-8"?>
<!-- Generator: Adobe Illustrator 23.0.3, SVG Export Plug-In . SVG Version: 6.00 Build 0)  -->
<svg version="1.1" id="Layer_1" xmlns="http://www.w3.org/2000/svg" xmlns:xlink="http://www.w3.org/1999/xlink" x="0px" y="0px"
	 viewBox="0 0 1920 600" style="enable-background:new 0 0 1920 600;" xml:space="preserve">
<style type="text/css">
	.st0{display:none;fill:url(#SVGID_1_);}
	.st1{fill:url(#SVGID_2_);}
	.st2{opacity:0.45;clip-path:url(#SVGID_4_);}
	.st3{opacity:0.8;fill:#200035;}
	.st4{fill:#200035;}
	.st5{opacity:0.45;clip-path:url(#SVGID_6_);}
</style>
<linearGradient id="SVGID_1_" gradientUnits="userSpaceOnUse" x1="-40.2076" y1="1790.2699" x2="1270.7803" y2="2267.4282" gradientTransform="matrix(1 0 0 1 0 -1676)">
	<stop  offset="0" style="stop-color:#9578F4;stop-opacity:0.2"/>
	<stop  offset="1" style="stop-color:#704DE2;stop-opacity:0"/>
</linearGradient>
<path class="st0" d="M960,340c144.7,0,284.6-9.5,410.7-23.1c-126.1-13.6-267.6-44.4-410.7-23.1C61.1,427.6,0,3.8,0,3.8v436h1.1
	C25.4,434.4,464.4,340,960,340z"/>
<g>
	<g id="Layer_2-2_1_">
		
			<radialGradient id="SVGID_2_" cx="582.2222" cy="-1437.1111" r="1498.0458" gradientTransform="matrix(1 0 0 -1 0 -1074)" gradientUnits="userSpaceOnUse">
			<stop  offset="0" style="stop-color:#80043C"/>
			<stop  offset="0.2075" style="stop-color:#66033A"/>
			<stop  offset="0.551" style="stop-color:#400137"/>
			<stop  offset="0.8273" style="stop-color:#290036"/>
			<stop  offset="1" style="stop-color:#200035"/>
		</radialGradient>
		<path class="st1" d="M0,0v440c0,0,450-100,960-100s960-118,960-118V0H0z"/>
	</g>
</g>
<g>
	<defs>
		<path id="SVGID_3_" d="M0,0v440c0,0,450-100,960-100s960-118,960-118V0H0z"/>
	</defs>
	<clipPath id="SVGID_4_">
		<use xlink:href="#SVGID_3_"  style="overflow:visible;"/>
	</clipPath>
	<g class="st2">
		<path class="st3" d="M1265.9,287.5L1242.3,38c1.6-0.3,2.9-1.8,2.9-3.5c0-2-1.6-3.6-3.6-3.6c-2,0-3.6,1.6-3.6,3.6
			c0,0.5,0.1,1,0.3,1.5l-95.4,54.9c-0.7-0.9-1.7-1.5-2.9-1.5c-1.9,0-3.4,1.4-3.6,3.2l-299.9,3c-0.2-1.8-1.7-3.2-3.5-3.2
			c-1.6,0-2.9,1-3.4,2.4L499,15c0-0.2,0-0.3,0-0.5c0-2-1.6-3.6-3.6-3.6c-1.9,0-3.5,1.6-3.6,3.5L272.1,31.6c-0.3-1.7-1.8-2.9-3.5-2.9
			c-2,0-3.6,1.6-3.6,3.6c0,0.2,0,0.5,0.1,0.7l-98.1,31.2c-0.6-1.3-1.8-2.1-3.3-2.1c-1.8,0-3.2,1.3-3.5,2.9L-83.5,44.3
			c0-1.9-1.6-3.5-3.6-3.5c-2,0-3.6,1.6-3.6,3.6c0,0.1,0,0.3,0,0.4L-285.8,88c-0.5-1.4-1.8-2.5-3.4-2.5c-1.7,0-3.2,1.2-3.5,2.9
			l-62.5-6.1c0-2-1.6-3.6-3.6-3.6c-1.9,0-3.4,1.4-3.6,3.3l-169.6,3.6c-0.2-1.8-1.7-3.1-3.5-3.1c-2,0-3.6,1.6-3.6,3.6
			c0,0.8,0.2,1.5,0.6,2L-731.8,255c-0.6-0.6-1.5-1-2.4-1c-2,0-3.6,1.6-3.6,3.6c0,2,1.6,3.6,3.6,3.6c1.8,0,3.3-1.4,3.6-3.2l77.9,0.7
			c0.2,1.8,1.7,3.2,3.6,3.2c1.8,0,3.3-1.3,3.5-3.1l69.1,2.8c0.1,1.9,1.7,3.4,3.6,3.4c1.7,0,3.1-1.2,3.5-2.8l239.2,28c0,0,0,0,0,0
			c0,2,1.6,3.6,3.6,3.6c1.5,0,2.8-0.9,3.3-2.3L98.3,407.4c0,0.2-0.1,0.4-0.1,0.6c0,2,1.6,3.6,3.6,3.6c1.7,0,3.1-1.2,3.5-2.8
			l227.8,27.6c0,0,0,0,0,0.1c0,2,1.6,3.6,3.6,3.6c2,0,3.6-1.6,3.6-3.6c0-0.4-0.1-0.8-0.2-1.2l234-110.4c0.6,1,1.8,1.7,3.1,1.7
			c1.4,0,2.7-0.9,3.3-2.1L844.3,413c-0.1,0.3-0.1,0.5-0.1,0.8c0,2,1.6,3.6,3.6,3.6c1.8,0,3.3-1.4,3.5-3.1l288.4,6.2
			c0.2,1.8,1.7,3.3,3.6,3.3c2,0,3.6-1.6,3.6-3.6c0-0.9-0.3-1.7-0.9-2.3l117.7-123.9c0.6,0.5,1.4,0.8,2.2,0.8c2,0,3.6-1.6,3.6-3.6
			C1269.4,289.1,1267.9,287.5,1265.9,287.5z M-731.3,255.6l193.4-166.9c0.1,0.1,0.1,0.1,0.2,0.1l-109.8,166.4
			c-0.5-0.3-1-0.4-1.6-0.4c-1.8,0-3.3,1.4-3.5,3.2l-77.9-0.7C-730.7,256.7-731,256.1-731.3,255.6z M101.8,404.3
			c-0.3,0-0.5,0-0.8,0.1L56,270.1l-10.2-30.4c1.2-0.6,2.1-1.8,2.1-3.3c0-0.2,0-0.4-0.1-0.5l179.8-46.8c0.2,0.7,0.7,1.2,1.2,1.6
			l-125.6,214C102.8,404.5,102.3,404.3,101.8,404.3z M990.6,178.6L908,202.4c-0.5-1.3-1.8-2.2-3.3-2.2c-0.6,0-1.2,0.2-1.7,0.4
			L835.2,98.7c0.3-0.2,0.5-0.5,0.7-0.8l154.9,78.7c-0.2,0.4-0.2,0.8-0.2,1.3C990.6,178.2,990.6,178.4,990.6,178.6z M850,410.9
			l142.7-229.7c0.5,0.2,1,0.4,1.6,0.4c1.2,0,2.3-0.6,2.9-1.5l51.8,29.3l66.8,37.8c-0.2,0.4-0.3,0.9-0.3,1.4c0,0.5,0.1,1.1,0.4,1.5
			L850.6,411.6C850.4,411.3,850.2,411.1,850,410.9z M1137.1,95.1c0.5,0.7,1.2,1.2,2,1.4l-20,148.5c0,0-0.1,0-0.1,0
			c-1.2,0-2.3,0.6-2.9,1.5l-118.6-67.1c0.2-0.4,0.3-0.9,0.3-1.4c0-0.5-0.1-1-0.3-1.5l103.7-60.5L1137.1,95.1z M901.1,203.7
			C901.1,203.7,901.1,203.7,901.1,203.7c0,0.4,0,0.7,0.1,0.9L580.3,321.4c-0.5-1.1-1.5-1.8-2.8-2l2-108.6l0.8-45.2
			c1.6-0.1,2.8-1.2,3.2-2.7l209.6,27L901.1,203.7z M-323.3,289.1l264.2-128.9c0.6,1,1.8,1.7,3,1.7c1,0,1.9-0.4,2.6-1.1l94.9,73.8
			c-0.3,0.5-0.5,1.2-0.5,1.9c0,0,0,0.1,0,0.1l-364,52.9C-323.3,289.3-323.3,289.2-323.3,289.1z M229,184.9c-0.9,0.6-1.5,1.7-1.5,2.9
			c0,0.2,0,0.4,0.1,0.5L47.7,235.1c-0.2-0.6-0.6-1-1-1.4l28.9-41.4l86.3-123.5c0.5,0.3,1.1,0.5,1.7,0.5c0.5,0,1-0.1,1.4-0.3l0.9,1.7
			L229,184.9z M160.5,67.3c0.2,0.4,0.5,0.7,0.8,1L46.1,233.3c-0.5-0.3-1.1-0.5-1.7-0.5c-1,0-1.9,0.4-2.6,1.1l-94.9-73.8
			c0.3-0.5,0.5-1.2,0.5-1.9c0-0.4-0.1-0.7-0.2-1l44.3-18.7L160.5,67.3z M-289.4,92.7c0.1,0,0.2,0,0.3,0c1.5,0,2.8-0.9,3.3-2.2
			l226.2,67c0,0.2-0.1,0.4-0.1,0.6c0,0.4,0.1,0.8,0.2,1.2l-249.4,121.7l-14.8,7.2c-0.5-0.7-1.2-1.3-2-1.5l21.8-116.7L-289.4,92.7z
			 M234.5,187.2c-0.2-1.3-1.1-2.3-2.3-2.7l35.9-148.7c0.2,0,0.3,0,0.5,0c1.4,0,2.5-0.8,3.1-1.9L576.6,161c-0.1,0.3-0.1,0.6-0.2,0.9
			l-4.8,0.4L234.5,187.2z M904.1,207.3c0.2,0,0.4,0.1,0.6,0.1c2,0,3.6-1.6,3.6-3.6c0-0.2,0-0.4-0.1-0.6l13.1-3.8l69.5-20.1
			c0.2,0.6,0.6,1.1,1.1,1.5L849.3,410.5c-0.1,0-0.2-0.1-0.3-0.1l51.5-189.8L904.1,207.3z M1122.5,249.2c0-0.2,0.1-0.4,0.1-0.6
			c0-1.7-1.2-3.1-2.7-3.5l15.3-113.1l4.8-35.4c0,0,0.1,0,0.1,0c0.6,0,1.1-0.1,1.6-0.4l82.9,130.5l39.2,61.6
			c-0.5,0.4-0.9,0.9-1.1,1.4l-64.7-18.7L1122.5,249.2z M1136.7,94.4l-94.7,55.2L997,175.8c-0.7-0.9-1.7-1.5-2.9-1.5
			c-1.3,0-2.4,0.7-3,1.6L836.3,97.3c0.1-0.3,0.2-0.6,0.2-0.9l299.9-3C1136.4,93.7,1136.5,94.1,1136.7,94.4z M829.6,97.2
			c0.5,1.4,1.8,2.3,3.4,2.3c0.6,0,1.2-0.2,1.7-0.4L902.4,201c-0.6,0.5-1,1.2-1.2,1.9l-258-33.2l-59.7-7.7c0,0,0-0.1,0-0.1
			c0-0.2,0-0.4-0.1-0.5l112.1-29.3L829.6,97.2z M495.5,18.1c0.5,0,1-0.1,1.4-0.3L536,86l41.9,73.1c-0.4,0.3-0.8,0.7-1,1.2L272,33.2
			c0.1-0.3,0.1-0.6,0.2-0.9l219.8-17.1C492.2,16.9,493.7,18.1,495.5,18.1z M160.2,66.6L-53,156.5c-0.6-1.1-1.8-1.9-3.1-1.9
			c-0.2,0-0.4,0-0.6,0.1l-29.1-107c1.1-0.4,2-1.4,2.2-2.7l243.6,20.7C160.1,66,160.1,66.3,160.2,66.6z M-290.2,92.6l-36.2,194.2
			c-0.1,0-0.2,0-0.3,0c-0.1,0-0.1,0-0.2,0l-30.9-200.9c1.3-0.3,2.3-1.4,2.6-2.7l62.5,6.1C-292.7,90.8-291.7,92.1-290.2,92.6z
			 M-361.7,84.3l-160.6,134.3l-48.2,40.3c-0.4-0.4-0.9-0.6-1.4-0.8l36.1-168.4c0.1,0,0.2,0,0.4,0c1.9,0,3.4-1.4,3.6-3.3l169.6-3.6
			C-362.2,83.3-362,83.9-361.7,84.3z M-646.9,255.6l109.8-166.4c0.2,0.1,0.3,0.2,0.5,0.2l-20.8,96.9l-15.3,71.5c-0.1,0-0.2,0-0.4,0
			c-1.8,0-3.3,1.3-3.5,3.1l-69.1-2.8C-645.7,257.1-646.2,256.3-646.9,255.6z M234.5,188.8c0.1-0.3,0.1-0.5,0.1-0.8l138.8-10.3
			l203.1-15c0.3,1.5,1.5,2.7,3.1,2.9l-2.8,153.9c-1.3,0.1-2.3,0.9-2.9,1.9L247.3,193.8L234.5,188.8z M851,412.2l60.8-37.1
			l204.3-124.4c0.7,0.9,1.7,1.4,2.8,1.4c0,0,0.1,0,0.1,0l23.3,164.5c-1.4,0.4-2.5,1.5-2.7,3l-288.4-6.2
			C851.3,413,851.2,412.6,851,412.2z M1143.3,416.5c0,0-0.1,0-0.1,0L1119.8,252c1.1-0.3,2-1.1,2.4-2.1l140,40.5
			c0,0.2-0.1,0.4-0.1,0.6c0,0.9,0.3,1.7,0.9,2.3l-117.7,123.9C1144.8,416.8,1144.1,416.5,1143.3,416.5z M1238.7,36.6
			c0.6,0.9,1.7,1.5,2.9,1.5l23.6,249.4c-0.3,0.1-0.6,0.2-0.9,0.3L1142.2,95.7c0.8-0.7,1.4-1.7,1.4-2.8c0-0.5-0.1-1-0.3-1.5
			L1238.7,36.6z M829.4,95.5c0,0.2,0,0.3,0,0.5c0,0.2,0,0.4,0.1,0.5l-127,33.2l-119,31.1c-0.5-1.4-1.8-2.3-3.3-2.3
			c-0.5,0-1,0.1-1.4,0.3l-81-141.3c0.6-0.4,1-1,1.3-1.7L829.4,95.5z M265.3,33.7c0.4,0.9,1.2,1.6,2.1,1.9l-35.9,148.7
			c-0.2,0-0.3,0-0.5,0c-0.5,0-1,0.1-1.4,0.3l-63.9-116c0.9-0.6,1.5-1.7,1.5-2.9c0-0.2,0-0.5-0.1-0.7L265.3,33.7z M-90.4,45.5
			c0.5,1.4,1.8,2.5,3.4,2.5c0.2,0,0.4,0,0.6-0.1l27.9,102.8l1.1,4.1c-0.9,0.4-1.6,1.1-2,2l-226.2-67c0-0.2,0.1-0.4,0.1-0.7
			c0-0.1,0-0.3,0-0.4L-90.4,45.5z M-569.4,261.5C-569.4,261.5-569.4,261.5-569.4,261.5c0-0.8-0.2-1.5-0.6-2l208.8-174.5
			c0.6,0.6,1.5,1,2.5,1c0.1,0,0.1,0,0.2,0l7.4,47.8l23.6,153.1c-1.3,0.3-2.3,1.4-2.6,2.7L-569.4,261.5z M-323.2,290.9
			c0-0.2,0.1-0.4,0.1-0.6c0,0,0-0.1,0-0.1l364-52.9c0.4,1.6,1.8,2.7,3.5,2.7c0.3,0,0.5,0,0.8-0.1l55.2,164.8c-0.8,0.4-1.5,1.1-1.8,2
			L-323.2,290.9z M105.4,408C105.4,408,105.4,407.9,105.4,408c0-1.2-0.6-2.3-1.5-2.9l5.9-10l119.7-203.9c0.5,0.2,0.9,0.3,1.5,0.3
			c0.4,0,0.7-0.1,1-0.2l102.9,242.1c-0.9,0.5-1.5,1.3-1.8,2.3L105.4,408z M339.7,434.5c-0.6-1-1.8-1.7-3.1-1.7c-0.4,0-0.7,0.1-1,0.2
			L232.8,190.9c0.6-0.3,1.1-0.9,1.4-1.5l50,19.5l289.5,113.1c-0.1,0.3-0.1,0.6-0.1,0.9c0,0.4,0.1,0.8,0.2,1.2L339.7,434.5z
			 M580.6,323.8c0.1-0.3,0.1-0.5,0.1-0.8c0-0.3,0-0.6-0.1-0.9l320.9-116.8c0.4,0.8,1.1,1.4,1.9,1.8l-55.1,203.1
			c-0.2,0-0.4-0.1-0.6-0.1c-1.4,0-2.7,0.9-3.3,2.1L580.6,323.8z"/>
		<path class="st3" d="M1147.9,268.7L1121.7-8.1c1.8-0.4,3.2-2,3.2-3.9c0-2.2-1.8-4-4-4c-2.2,0-4,1.8-4,4c0,0.6,0.1,1.1,0.3,1.6
			l-105.9,60.9c-0.7-1-1.9-1.7-3.2-1.7c-2.1,0-3.8,1.6-3.9,3.6l-332.7,3.3c-0.2-2-1.9-3.5-3.9-3.5c-1.7,0-3.2,1.1-3.7,2.6
			L297.2-33.6c0-0.2,0.1-0.3,0.1-0.5c0-2.2-1.8-4-4-4c-2.2,0-3.9,1.7-4,3.9l-243.8,19c-0.3-1.9-2-3.3-3.9-3.3c-2.2,0-4,1.8-4,4
			c0,0.3,0,0.5,0.1,0.8L-71.2,21c-0.6-1.4-2-2.4-3.6-2.4c-1.9,0-3.6,1.4-3.9,3.2L-349-1.1c0-2.2-1.8-3.9-4-3.9c-2.2,0-4,1.8-4,4
			c0,0.2,0,0.3,0,0.4l-216.5,48c-0.5-1.6-2-2.7-3.8-2.7c-1.9,0-3.5,1.4-3.9,3.2l-69.3-6.8c0-2.2-1.8-4-4-4c-2.1,0-3.8,1.6-4,3.6
			l-188.2,4c-0.2-2-1.9-3.5-3.9-3.5c-2.2,0-4,1.8-4,4c0,0.8,0.3,1.6,0.7,2.3l-214.6,185.1c-0.7-0.7-1.7-1.1-2.7-1.1
			c-2.2,0-4,1.8-4,4s1.8,4,4,4c2,0,3.7-1.5,3.9-3.5l86.5,0.8c0.2,2,1.9,3.6,3.9,3.6c2,0,3.6-1.5,3.9-3.4l76.7,3.1
			c0.1,2.1,1.8,3.7,4,3.7c1.9,0,3.5-1.3,3.9-3.1l265.4,31.1c0,0,0,0,0,0c0,2.2,1.8,4,4,4c1.7,0,3.1-1.1,3.7-2.5l467.8,128.4
			c0,0.2-0.1,0.4-0.1,0.6c0,2.2,1.8,4,4,4c1.9,0,3.5-1.3,3.9-3.1l252.7,30.6c0,0,0,0,0,0.1c0,2.2,1.8,4,4,4c2.2,0,4-1.8,4-4
			c0-0.5-0.1-0.9-0.2-1.3l259.6-122.4c0.7,1.1,2,1.9,3.4,1.9c1.6,0,3-1,3.6-2.3l292.8,98.1c-0.1,0.3-0.1,0.6-0.1,0.9
			c0,2.2,1.8,4,4,4c2,0,3.7-1.5,3.9-3.5l319.9,6.9c0.2,2,1.9,3.6,4,3.6c2.2,0,4-1.8,4-4c0-1-0.4-1.9-1-2.6l130.6-137.4
			c0.7,0.5,1.5,0.8,2.4,0.8c2.2,0,4-1.8,4-4C1151.9,270.5,1150.1,268.7,1147.9,268.7z M-1067.7,233.3l214.6-185.1
			c0.1,0.1,0.1,0.1,0.2,0.2l-121.9,184.6c-0.5-0.3-1.2-0.5-1.8-0.5c-2,0-3.7,1.5-3.9,3.5l-86.5-0.8
			C-1067.1,234.5-1067.3,233.9-1067.7,233.3z M41-10.6c0.2,0,0.3,0.1,0.5,0.1c1.5,0,2.8-0.8,3.5-2.1l290.9,121.2l47.4,19.7
			c-0.1,0.3-0.2,0.7-0.2,1l-17.9,1.3L3.8,157.4c-0.3-1.4-1.3-2.6-2.6-3l2.1-8.8L41-10.6z M842.6,147.9l-91.6,26.4
			c-0.6-1.5-2-2.5-3.7-2.5c-0.7,0-1.3,0.2-1.8,0.5l-75.3-113c0.3-0.3,0.6-0.5,0.8-0.9l171.8,87.4c-0.2,0.4-0.3,0.9-0.3,1.4
			C842.5,147.4,842.5,147.6,842.6,147.9z M667.6,60.2c0.7,0,1.3-0.2,1.8-0.5l75.3,113c-0.7,0.5-1.1,1.3-1.3,2.1L391,129.6
			c0,0,0-0.1,0-0.1c0-0.2,0-0.4-0.1-0.6l272.9-71.3C664.5,59.1,665.9,60.2,667.6,60.2z M1007.3,56.7l-3.2,23.7l-19,141.1
			c0,0-0.1,0-0.1,0c-1.3,0-2.5,0.7-3.2,1.7l-131.6-74.4c0.2-0.5,0.3-1,0.3-1.6c0-0.6-0.1-1.1-0.4-1.6L1005,55.2
			C1005.6,56,1006.3,56.5,1007.3,56.7z M988.8,226.2c0-0.2,0.1-0.5,0.1-0.7c0-1.9-1.3-3.4-3-3.9l2-14.6l20.2-150.1c0,0,0.1,0,0.1,0
			c0.6,0,1.2-0.2,1.8-0.4l135.4,213.1c-0.5,0.4-1,1-1.2,1.6l-33.8-9.8L988.8,226.2z M-143.5,398.3c-0.3,0-0.6,0-0.9,0.1l-61.2-182.8
			c1.4-0.6,2.3-2,2.3-3.6c0-0.2,0-0.4-0.1-0.6l199.4-51.9c0.3,0.7,0.7,1.3,1.4,1.8l-139.3,237.4
			C-142.3,398.5-142.9,398.3-143.5,398.3z M-211.2,212.2L-615,270.8c0-0.1-0.1-0.2-0.1-0.4l293.1-143.1c0.7,1.1,1.9,1.9,3.4,1.9
			c1.1,0,2.1-0.5,2.9-1.2l105.3,81.9c-0.4,0.6-0.6,1.3-0.6,2.1C-211.2,212.1-211.2,212.1-211.2,212.2z M-577.2,52.6
			c1.7,0,3.1-1,3.7-2.5l250.9,74.4c0,0.2-0.1,0.5-0.1,0.7c0,0.5,0.1,0.9,0.3,1.4l-75.7,37l-217.4,106.1c-0.5-0.8-1.3-1.4-2.2-1.7
			l15.7-84.3l24.5-131.1C-577.4,52.6-577.3,52.6-577.2,52.6z M-77.5,25.5l-127.8,183c-0.6-0.3-1.2-0.5-1.9-0.5
			c-1.1,0-2.1,0.5-2.9,1.2l-105.3-81.9c0.4-0.6,0.6-1.3,0.6-2.1c0-0.4-0.1-0.8-0.2-1.1l236.5-99.7C-78.1,24.9-77.8,25.2-77.5,25.5z
			 M-4.1,158.1c0,0.2,0,0.4,0.1,0.6l-199.4,51.9c-0.2-0.6-0.6-1.2-1.1-1.6L-76.8,26c0.6,0.3,1.2,0.5,1.9,0.5c0.5,0,1.1-0.1,1.5-0.3
			l70.9,128.6C-3.4,155.6-4.1,156.8-4.1,158.1z M384.3,304.2l3.1-170.7c1.7-0.2,3.1-1.4,3.5-3l352.4,45.3c0,0,0,0.1,0,0.1
			c0,0.3,0.1,0.6,0.1,1l-356,129.6C386.8,305.2,385.7,304.3,384.3,304.2z M687.2,406.3c-0.2-0.3-0.4-0.5-0.7-0.7l158.3-254.9
			c0.5,0.3,1.1,0.4,1.7,0.4c1.3,0,2.5-0.7,3.2-1.7l131.6,74.4c-0.2,0.5-0.3,1-0.3,1.6c0,0.6,0.1,1.2,0.4,1.7l-146,88.9L687.2,406.3z
			 M1004.6,54.5l-154.9,90.3c-0.7-1-1.9-1.6-3.2-1.6c-1.4,0-2.6,0.7-3.3,1.8l-157-79.8l-14.8-7.5c0.1-0.3,0.2-0.7,0.2-1l332.7-3.3
			C1004.3,53.7,1004.4,54.1,1004.6,54.5z M293.2-30.1c0.6,0,1.1-0.1,1.6-0.3l89.9,156.7c-0.5,0.3-0.9,0.8-1.1,1.3L45.3-13.4
			c0.1-0.3,0.2-0.7,0.2-1l243.8-19C289.7-31.5,291.3-30.1,293.2-30.1z M-78.7,23.7l-236.5,99.7c-0.7-1.2-2-2.1-3.5-2.1
			c-0.2,0-0.4,0-0.6,0.1L-351.6,2.7c1.3-0.5,2.2-1.6,2.5-3l270.2,22.9C-78.8,23-78.8,23.4-78.7,23.7z M-578.3,52.5l-40.2,215.4
			c-0.1,0-0.2,0-0.3,0c-0.1,0-0.1,0-0.2,0l-13.5-87.5l-20.9-135.5c1.5-0.4,2.6-1.6,2.9-3l69.3,6.8C-581.2,50.5-580,52-578.3,52.5z
			 M-657.7,43.3L-880,229.2l-9.3,7.8c-0.4-0.4-1-0.7-1.5-0.9l14.7-68.8l25.3-118c0.1,0,0.3,0,0.4,0c2.1,0,3.8-1.6,4-3.6l188.2-4
			C-658.3,42.2-658,42.8-657.7,43.3z M-974.1,233.4l121.9-184.6c0.2,0.1,0.4,0.2,0.6,0.2l-40,186.8c-0.1,0-0.3,0-0.4,0
			c-2,0-3.6,1.5-3.9,3.4l-76.7-3.1C-972.8,235-973.3,234.1-974.1,233.4z M3.7,159.2c0.1-0.3,0.1-0.6,0.1-0.9l379.3-28
			c0.3,1.7,1.7,3,3.4,3.2l-0.7,37.3l-2.4,133.4c-1.4,0.1-2.6,0.9-3.2,2.1l-265-103.5L3.7,159.2z M746.6,179.7c0.2,0,0.4,0.1,0.6,0.1
			c2.2,0,4-1.8,4-4c0-0.2,0-0.5-0.1-0.7l91.6-26.4c0.3,0.7,0.7,1.2,1.2,1.6L685.8,405.2c-0.1,0-0.2-0.1-0.3-0.1l33.6-123.9
			L746.6,179.7z M687.7,407.1l69.3-42.2l224.9-137c0.7,1,1.9,1.6,3.2,1.6c0,0,0.1,0,0.1,0l25.8,182.5c-1.6,0.4-2.8,1.7-3,3.3
			L688,408.4C688,407.9,687.9,407.5,687.7,407.1z M1011.9,411.8c0,0-0.1,0-0.1,0l-18.8-132.9l-7-49.6c1.2-0.3,2.2-1.2,2.7-2.3
			l155.4,45c0,0.2-0.1,0.5-0.1,0.7c0,1,0.4,1.9,1,2.6l-130.6,137.4C1013.6,412.1,1012.8,411.8,1011.9,411.8z M1117.7-9.6
			c0.7,1,1.9,1.6,3.2,1.6l26.2,276.7c-0.3,0.1-0.7,0.2-1,0.3L1010.7,56c0.9-0.7,1.5-1.8,1.5-3.1c0-0.6-0.1-1.1-0.3-1.6L1117.7-9.6z
			 M663.7,55.7c0,0.2-0.1,0.3-0.1,0.5c0,0.2,0,0.4,0.1,0.6l-272.9,71.3c-0.6-1.5-2-2.6-3.7-2.6c-0.6,0-1.1,0.1-1.6,0.3L295.6-30.9
			c0.6-0.5,1.1-1.1,1.4-1.9L663.7,55.7z M37.9-12.9c0.4,1,1.3,1.8,2.3,2.1L0.4,154.2c-0.2,0-0.3-0.1-0.5-0.1c-0.5,0-1.1,0.1-1.5,0.3
			l-46.8-85l-24.1-43.7c1-0.7,1.7-1.9,1.7-3.3c0-0.3,0-0.5-0.1-0.8L37.9-12.9z M-356.8,0.2c0.5,1.6,2,2.7,3.8,2.7
			c0.2,0,0.4,0,0.6-0.1l32.2,118.7c-1,0.4-1.8,1.2-2.2,2.2l-250.9-74.4c0-0.2,0.1-0.5,0.1-0.7c0-0.2,0-0.3,0-0.4L-356.8,0.2z
			 M-888.1,239.8C-888.1,239.8-888.1,239.8-888.1,239.8c0-0.9-0.2-1.6-0.7-2.3l231.6-193.6c0.7,0.7,1.7,1.1,2.8,1.1
			c0.1,0,0.1,0,0.2,0l34.3,222.9c-1.4,0.4-2.5,1.5-2.9,3L-888.1,239.8z M-615,272.4c0-0.2,0.1-0.4,0.1-0.6c0-0.1,0-0.1,0-0.2
			L-211,213c0.4,1.7,2,3,3.8,3c0.3,0,0.6,0,0.9-0.1l61.2,182.8c-0.9,0.4-1.7,1.2-2,2.2L-615,272.4z M-139.5,402.4
			C-139.5,402.4-139.5,402.3-139.5,402.4c0-1.4-0.6-2.5-1.6-3.3L-1.8,161.7c0.5,0.2,1.1,0.4,1.6,0.4c0.4,0,0.8-0.1,1.2-0.2
			l114.1,268.5c-1,0.5-1.7,1.5-1.9,2.6L-139.5,402.4z M120.5,431.8c-0.7-1.1-2-1.9-3.4-1.9c-0.4,0-0.8,0.1-1.2,0.2L1.8,161.6
			c0.7-0.4,1.2-0.9,1.6-1.6l199.5,77.9L380,307.1c-0.1,0.3-0.2,0.7-0.2,1c0,0.5,0.1,0.9,0.2,1.3L120.5,431.8z M387.7,309
			c0.1-0.3,0.1-0.6,0.1-0.9c0-0.3-0.1-0.6-0.1-1l143.6-52.3l212.4-77.3c0.4,0.9,1.2,1.6,2.1,2l-33.2,122.2l-28,103.1
			c-0.2,0-0.4-0.1-0.6-0.1c-1.6,0-3,1-3.6,2.3L387.7,309z"/>
		<g>
			<path class="st4" d="M694.1,201.2c-1.3,0-2.4,1-2.5,2.3L635,203c-0.1-1.3-1.2-2.4-2.6-2.4c-1.3,0-2.3,1-2.5,2.2l-50.2-2
				c-0.1-1.4-1.2-2.4-2.6-2.4c-1.2,0-2.2,0.9-2.5,2l-173.5-20.3c0,0,0,0,0,0c0-1.4-1.2-2.6-2.6-2.6c-1.1,0-2,0.7-2.4,1.7l-305.9-84
				c0-0.1,0.1-0.3,0.1-0.4c0-1.4-1.2-2.6-2.6-2.6c-1.2,0-2.2,0.9-2.5,2l-165.3-20c0,0,0,0,0,0c0-1.4-1.2-2.6-2.6-2.6
				c-1.4,0-2.6,1.2-2.6,2.6c0,0.3,0.1,0.6,0.2,0.8l-169.8,80.1c-0.5-0.7-1.2-1.3-2.2-1.3c-1.1,0-1.9,0.6-2.4,1.5l-191.5-64.2
				c0-0.2,0.1-0.4,0.1-0.5c0-1.4-1.2-2.6-2.6-2.6c-1.3,0-2.4,1-2.5,2.3l-209.2-4.5c-0.1-1.3-1.2-2.4-2.6-2.4c-1.4,0-2.6,1.2-2.6,2.6
				c0,0.6,0.3,1.2,0.6,1.7l-85.4,89.9c-0.4-0.3-1-0.6-1.6-0.6c-1.4,0-2.6,1.2-2.6,2.6c0,1.4,1.2,2.6,2.6,2.6l17.1,181
				c-1.2,0.2-2.1,1.2-2.1,2.5c0,1.4,1.2,2.6,2.6,2.6s2.6-1.2,2.6-2.6c0-0.4-0.1-0.7-0.2-1l69.3-39.8c0.5,0.6,1.2,1.1,2.1,1.1
				c1.4,0,2.4-1,2.6-2.4l217.6-2.2c0.2,1.3,1.2,2.3,2.5,2.3c1.1,0,2.1-0.7,2.4-1.7l239.8,57.9c0,0.1-0.1,0.2-0.1,0.3
				c0,1.4,1.2,2.6,2.6,2.6c1.4,0,2.5-1.1,2.6-2.5l159.5-12.4c0.2,1.2,1.2,2.1,2.5,2.1c1.4,0,2.6-1.2,2.6-2.6c0-0.2-0.1-0.3-0.1-0.5
				l71.2-22.7c0.4,0.9,1.3,1.6,2.4,1.6c1.3,0,2.3-0.9,2.5-2.1l176.7,15c0,1.4,1.2,2.5,2.6,2.5c1.4,0,2.6-1.2,2.6-2.6
				c0-0.1,0-0.2-0.1-0.3l141.6-31.4c0.3,1,1.3,1.8,2.4,1.8c1.3,0,2.3-0.9,2.5-2.1l45.4,4.5c0,1.4,1.2,2.6,2.6,2.6
				c1.4,0,2.4-1.1,2.6-2.4l123.1-2.6c0.2,1.3,1.2,2.3,2.5,2.3c1.4,0,2.6-1.2,2.6-2.6c0-0.6-0.2-1-0.5-1.5l140.3-121.1
				c0.5,0.4,1.1,0.7,1.8,0.7c1.4,0,2.6-1.2,2.6-2.6S695.6,201.2,694.1,201.2z M223.8,356.1c-0.8,0.3-1.4,1-1.6,1.9L45.5,343
				c0-0.2-0.1-0.5-0.1-0.7L200,277.2c0.4,0.8,1.3,1.4,2.2,1.4c0.1,0,0.3-0.1,0.4-0.1l11.1,40.8L223.8,356.1z M371.3,323.4
				c-1.1,0-2,0.7-2.4,1.6l-164.1-48.6c0-0.2,0.1-0.3,0.1-0.5c0-0.3-0.1-0.6-0.2-0.9l191.7-93.6c0.3,0.5,0.8,0.9,1.4,1.1l-21.3,114.1
				l-5,26.8C371.4,323.5,371.4,323.4,371.3,323.4z M396.1,181l-31.3,15.3l-160.4,78.3c-0.5-0.7-1.2-1.2-2.2-1.2
				c-0.7,0-1.4,0.3-1.9,0.8l-0.1-0.1l-68.7-53.4c0.2-0.4,0.4-0.8,0.4-1.3c0,0,0-0.1,0-0.1l264.1-38.4
				C396.1,180.9,396.1,180.9,396.1,181z M86.7,97.2c0.3,0.1,0.7,0.2,1.1,0.2c0.2,0,0.4-0.1,0.5-0.1l40,119.6
				c-0.9,0.4-1.5,1.3-1.5,2.4c0,0.1,0.1,0.2,0.1,0.4l-33.5,8.7l-96.9,25.2c-0.2-0.5-0.5-0.8-0.9-1.1l24.2-41.3L86.7,97.2z
				 M-6.9,256.9l-26,107.9c-0.1,0-0.2-0.1-0.3-0.1c-1,0-1.8,0.6-2.3,1.4l-221.2-92.2c0.1-0.2,0.1-0.4,0.1-0.6l248-18.3
				C-8.3,255.8-7.7,256.6-6.9,256.9z M-261.7,273.6l-178.5,46.6c-0.4-1-1.3-1.7-2.4-1.7c-0.4,0-0.8,0.1-1.2,0.3l-11.7-17.6
				l-37.5-56.4c0.4-0.4,0.7-0.8,0.8-1.4l230.4,29.6c0,0,0,0,0,0.1C-261.7,273.3-261.7,273.4-261.7,273.6z M-454.9,92.6l-103.5,166.7
				c-0.3-0.2-0.7-0.3-1.1-0.3c-0.9,0-1.6,0.5-2.1,1.1l-86.1-48.7c0.1-0.3,0.2-0.7,0.2-1c0-0.4-0.1-0.8-0.3-1.1l49.6-30.2l142.7-86.9
				C-455.2,92.3-455.1,92.5-454.9,92.6z M-664.7,320.8l14.5-107.8c0,0,0,0,0.1,0c0.9,0,1.6-0.5,2.1-1.1l86.1,48.7
				c-0.1,0.3-0.2,0.7-0.2,1c0,0.4,0.1,0.7,0.2,1.1l-77.9,45.4l-23.4,13.6C-663.6,321.3-664.1,320.9-664.7,320.8z M-492.2,242.3
				l232.8-84.7c0.4,0.8,1.1,1.3,2,1.4l-2,111.7c-1.1,0.1-2,0.9-2.3,2l-160.7-20.7l-69.7-9c0,0,0,0,0-0.1
				C-492,242.7-492.1,242.5-492.2,242.3z M-8.6,254.4l-248,18.3c-0.2-1.1-1.1-1.9-2.2-2.1l2-111.7c0.9-0.1,1.7-0.6,2.1-1.4
				l246.3,96.2C-8.5,254-8.6,254.2-8.6,254.4z M-557,261.2l60-17.3c0.4,1,1.3,1.6,2.4,1.6c0.4,0,0.8-0.1,1.2-0.3l49.2,73.9
				c-0.2,0.2-0.4,0.4-0.5,0.6l-112.4-57.1c0.1-0.3,0.2-0.6,0.2-0.9C-556.9,261.5-557,261.3-557,261.2z M-652.6,210
				c0,0.1-0.1,0.3-0.1,0.4c0,1.2,0.9,2.2,2,2.5l-14.5,107.8c0,0,0,0-0.1,0c-0.4,0-0.8,0.1-1.1,0.3L-755,181.6c0.3-0.3,0.6-0.6,0.8-1
				l19.7,5.7L-652.6,210z M-4.5,256.6c0.7-0.5,1.1-1.2,1.1-2.1c0-0.1-0.1-0.2-0.1-0.4L127,220.1c0.2,0.4,0.4,0.7,0.7,1L44.1,340.8
				c-0.4-0.2-0.8-0.4-1.2-0.4c-0.4,0-0.7,0.1-1,0.2l-27.6-50L-4.5,256.6z M45.1,341.9c-0.1-0.3-0.3-0.5-0.6-0.7l57.7-82.5l25.9-37.1
				c0.4,0.2,0.8,0.4,1.2,0.4c0.7,0,1.4-0.3,1.9-0.8l68.9,53.6c-0.2,0.4-0.4,0.8-0.4,1.3c0,0.3,0.1,0.5,0.1,0.7L120.7,310L45.1,341.9
				z M-494.2,240.4c-0.1,0-0.3-0.1-0.4-0.1c-1.4,0-2.6,1.2-2.6,2.6c0,0.2,0.1,0.3,0.1,0.4l-60,17.3c-0.2-0.4-0.5-0.8-0.8-1
				l103.5-166.7c0.1,0,0.1,0.1,0.2,0.1l-24.6,90.8L-494.2,240.4z M-455.7,91.7L-648,208.9c-0.5-0.6-1.2-1-2-1c0,0-0.1,0-0.1,0
				L-667,88.5c1-0.3,1.8-1.1,1.9-2.1l209.2,4.5C-455.9,91.1-455.8,91.4-455.7,91.7z M-667.7,88.6C-667.6,88.6-667.6,88.6-667.7,88.6
				l17,119.3c-0.8,0.2-1.5,0.7-1.8,1.5L-754.1,180c0-0.1,0.1-0.3,0.1-0.4c0-0.6-0.3-1.2-0.6-1.7l85.4-89.9
				C-668.8,88.4-668.3,88.6-667.7,88.6z M-662.9,322.2l101.3-59.1c0.5,0.6,1.2,1.1,2.1,1.1c0.9,0,1.7-0.5,2.1-1.2l112.4,57.1
				c-0.1,0.2-0.1,0.4-0.1,0.7l-217.6,2.2C-662.8,322.7-662.8,322.4-662.9,322.2z M-197.8,377.5c-0.4,0-0.7,0.1-1,0.2l-58.8-102.5
				c0.3-0.2,0.6-0.5,0.7-0.8l221.2,92.2c-0.1,0.2-0.1,0.4-0.1,0.7l-159.5,12.4C-195.5,378.5-196.5,377.5-197.8,377.5z M372,323.6
				l26.3-140.9c0.1,0,0.1,0,0.2,0c0,0,0.1,0,0.1,0l22.5,145.8c-0.9,0.3-1.6,1-1.8,2l-45.4-4.5C373.9,324.8,373.1,323.9,372,323.6z
				 M630.8,205.2l-79.7,120.7c-0.1-0.1-0.2-0.1-0.4-0.2l25-116.5l1.2-5.7c0.1,0,0.2,0.1,0.3,0.1c1.3,0,2.3-1,2.5-2.2l50.2,2
				C629.9,204.2,630.3,204.8,630.8,205.2z M423.9,329.6l151.5-126.6c0.3,0.3,0.6,0.5,1,0.6l-26.2,122.2c-0.1,0-0.2-0.1-0.3-0.1
				c-1.4,0-2.4,1.1-2.6,2.4l-123.1,2.6C424.2,330.2,424.1,329.9,423.9,329.6z M551.6,326.2l79.7-120.7c0.4,0.2,0.7,0.3,1.2,0.3
				c1.3,0,2.4-1,2.5-2.3l56.6,0.5c0,0.4,0.2,0.8,0.5,1.2L551.7,326.3C551.7,326.3,551.6,326.3,551.6,326.2z M574.6,201
				C574.6,201,574.6,201,574.6,201c0,0.6,0.2,1,0.5,1.4L423.6,329.1c-0.5-0.5-1.1-0.7-1.8-0.7c0,0-0.1,0-0.1,0l-22.5-145.8
				c0.9-0.2,1.6-1,1.8-1.9L574.6,201z M396,179.7c0,0.1-0.1,0.3-0.1,0.4c0,0,0,0.1,0,0.1l-264.1,38.4c-0.3-1.1-1.3-2-2.5-2
				c-0.2,0-0.4,0.1-0.5,0.1l-40-119.6c0.6-0.3,1.1-0.8,1.3-1.4L396,179.7z M85.1,94.8C85.1,94.8,85.1,94.8,85.1,94.8
				c0,0.9,0.4,1.6,1.1,2.1L-4.9,252.1c-0.3-0.1-0.7-0.2-1.1-0.2c-0.3,0-0.5,0.1-0.7,0.2L-81.4,76.4c0.6-0.4,1.1-0.9,1.2-1.7
				L85.1,94.8z M-84.8,75.5c0.5,0.7,1.2,1.3,2.2,1.3c0.3,0,0.5-0.1,0.7-0.2l74.6,175.6c-0.4,0.2-0.8,0.6-1,1.1l-246.3-96.2
				c0.1-0.2,0.1-0.4,0.1-0.7c0-0.3-0.1-0.6-0.2-0.8L-84.8,75.5z M-259.5,155.9c0,0.2-0.1,0.4-0.1,0.5c0,0.2,0.1,0.4,0.1,0.6
				l-232.8,84.7c-0.3-0.6-0.8-1-1.4-1.3l25.2-93.1l14.7-54.3c0.1,0,0.3,0.1,0.4,0.1c1.1,0,1.9-0.6,2.4-1.5L-259.5,155.9z
				 M-736.9,364.2c-0.5-0.6-1.2-1.1-2-1.1l-17.1-181c0.2,0,0.4-0.1,0.6-0.2l88.6,139.4c-0.6,0.5-1,1.2-1,2c0,0.4,0.1,0.7,0.2,1
				L-736.9,364.2z M-440,321.4c0-0.1,0.1-0.2,0.1-0.3c0-0.1-0.1-0.2-0.1-0.4l178.5-46.6c0.4,1,1.3,1.7,2.4,1.7c0.4,0,0.7-0.1,1-0.2
				l58.8,102.5c-0.4,0.3-0.7,0.7-0.9,1.2L-440,321.4z M-30.9,366.3c-0.3-0.7-0.8-1.1-1.5-1.4l26-107.9c0.1,0,0.2,0.1,0.3,0.1
				c0.4,0,0.7-0.1,1-0.2L41.4,341c-0.7,0.5-1.1,1.2-1.1,2.1c0,0.2,0.1,0.3,0.1,0.5L-30.9,366.3z M227.1,357.7
				c-0.3-1-1.3-1.8-2.4-1.8c-0.1,0-0.3,0.1-0.4,0.1l-4.6-17.1l-16.4-60.5c0.7-0.3,1.2-0.8,1.5-1.4l164.1,48.6c0,0.2-0.1,0.3-0.1,0.5
				c0,0.1,0,0.2,0.1,0.3L227.1,357.7z"/>
			<path class="st4" d="M694.1,201.2c-1.3,0-2.4,1-2.5,2.3L635,203c-0.1-1.3-1.2-2.4-2.6-2.4c-1.3,0-2.3,1-2.5,2.2l-50.2-2
				c-0.1-1.4-1.2-2.4-2.6-2.4c-1.2,0-2.2,0.9-2.5,2l-173.5-20.3c0,0,0,0,0,0c0-1.4-1.2-2.6-2.6-2.6c-1.1,0-2,0.7-2.4,1.7l-305.9-84
				c0-0.1,0.1-0.3,0.1-0.4c0-1.4-1.2-2.6-2.6-2.6c-1.2,0-2.2,0.9-2.5,2l-165.3-20c0,0,0,0,0,0c0-1.4-1.2-2.6-2.6-2.6
				c-1.4,0-2.6,1.2-2.6,2.6c0,0.3,0.1,0.6,0.2,0.8l-169.8,80.1c-0.5-0.7-1.2-1.3-2.2-1.3c-1.1,0-1.9,0.6-2.4,1.5l-191.5-64.2
				c0-0.2,0.1-0.4,0.1-0.5c0-1.4-1.2-2.6-2.6-2.6c-1.3,0-2.4,1-2.5,2.3l-209.2-4.5c-0.1-1.3-1.2-2.4-2.6-2.4c-1.4,0-2.6,1.2-2.6,2.6
				c0,0.6,0.3,1.2,0.6,1.7l-85.4,89.9c-0.4-0.3-1-0.6-1.6-0.6c-1.4,0-2.6,1.2-2.6,2.6c0,1.4,1.2,2.6,2.6,2.6l17.1,181
				c-1.2,0.2-2.1,1.2-2.1,2.5c0,1.4,1.2,2.6,2.6,2.6s2.6-1.2,2.6-2.6c0-0.4-0.1-0.7-0.2-1l69.3-39.8c0.5,0.6,1.2,1.1,2.1,1.1
				c1.4,0,2.4-1,2.6-2.4l217.6-2.2c0.2,1.3,1.2,2.3,2.5,2.3c1.1,0,2.1-0.7,2.4-1.7l239.8,57.9c0,0.1-0.1,0.2-0.1,0.3
				c0,1.4,1.2,2.6,2.6,2.6c1.4,0,2.5-1.1,2.6-2.5l159.5-12.4c0.2,1.2,1.2,2.1,2.5,2.1c1.4,0,2.6-1.2,2.6-2.6c0-0.2-0.1-0.3-0.1-0.5
				l71.2-22.7c0.4,0.9,1.3,1.6,2.4,1.6c1.3,0,2.3-0.9,2.5-2.1l176.7,15c0,1.4,1.2,2.5,2.6,2.5c1.4,0,2.6-1.2,2.6-2.6
				c0-0.1,0-0.2-0.1-0.3l141.6-31.4c0.3,1,1.3,1.8,2.4,1.8c1.3,0,2.3-0.9,2.5-2.1l45.4,4.5c0,1.4,1.2,2.6,2.6,2.6
				c1.4,0,2.4-1.1,2.6-2.4l123.1-2.6c0.2,1.3,1.2,2.3,2.5,2.3c1.4,0,2.6-1.2,2.6-2.6c0-0.6-0.2-1-0.5-1.5l140.3-121.1
				c0.5,0.4,1.1,0.7,1.8,0.7c1.4,0,2.6-1.2,2.6-2.6S695.6,201.2,694.1,201.2z M223.8,356.1c-0.8,0.3-1.4,1-1.6,1.9L45.5,343
				c0-0.2-0.1-0.5-0.1-0.7L200,277.2c0.4,0.8,1.3,1.4,2.2,1.4c0.1,0,0.3-0.1,0.4-0.1l11.1,40.8L223.8,356.1z M371.3,323.4
				c-1.1,0-2,0.7-2.4,1.6l-164.1-48.6c0-0.2,0.1-0.3,0.1-0.5c0-0.3-0.1-0.6-0.2-0.9l191.7-93.6c0.3,0.5,0.8,0.9,1.4,1.1l-21.3,114.1
				l-5,26.8C371.4,323.5,371.4,323.4,371.3,323.4z M396.1,181l-31.3,15.3l-160.4,78.3c-0.5-0.7-1.2-1.2-2.2-1.2
				c-0.7,0-1.4,0.3-1.9,0.8l-0.1-0.1l-68.7-53.4c0.2-0.4,0.4-0.8,0.4-1.3c0,0,0-0.1,0-0.1l264.1-38.4
				C396.1,180.9,396.1,180.9,396.1,181z M86.7,97.2c0.3,0.1,0.7,0.2,1.1,0.2c0.2,0,0.4-0.1,0.5-0.1l40,119.6
				c-0.9,0.4-1.5,1.3-1.5,2.4c0,0.1,0.1,0.2,0.1,0.4l-33.5,8.7l-96.9,25.2c-0.2-0.5-0.5-0.8-0.9-1.1l24.2-41.3L86.7,97.2z
				 M-6.9,256.9l-26,107.9c-0.1,0-0.2-0.1-0.3-0.1c-1,0-1.8,0.6-2.3,1.4l-221.2-92.2c0.1-0.2,0.1-0.4,0.1-0.6l248-18.3
				C-8.3,255.8-7.7,256.6-6.9,256.9z M-261.7,273.6l-178.5,46.6c-0.4-1-1.3-1.7-2.4-1.7c-0.4,0-0.8,0.1-1.2,0.3l-11.7-17.6
				l-37.5-56.4c0.4-0.4,0.7-0.8,0.8-1.4l230.4,29.6c0,0,0,0,0,0.1C-261.7,273.3-261.7,273.4-261.7,273.6z M-454.9,92.6l-103.5,166.7
				c-0.3-0.2-0.7-0.3-1.1-0.3c-0.9,0-1.6,0.5-2.1,1.1l-86.1-48.7c0.1-0.3,0.2-0.7,0.2-1c0-0.4-0.1-0.8-0.3-1.1l49.6-30.2l142.7-86.9
				C-455.2,92.3-455.1,92.5-454.9,92.6z M-664.7,320.8l14.5-107.8c0,0,0,0,0.1,0c0.9,0,1.6-0.5,2.1-1.1l86.1,48.7
				c-0.1,0.3-0.2,0.7-0.2,1c0,0.4,0.1,0.7,0.2,1.1l-77.9,45.4l-23.4,13.6C-663.6,321.3-664.1,320.9-664.7,320.8z M-492.2,242.3
				l232.8-84.7c0.4,0.8,1.1,1.3,2,1.4l-2,111.7c-1.1,0.1-2,0.9-2.3,2l-160.7-20.7l-69.7-9c0,0,0,0,0-0.1
				C-492,242.7-492.1,242.5-492.2,242.3z M-8.6,254.4l-248,18.3c-0.2-1.1-1.1-1.9-2.2-2.1l2-111.7c0.9-0.1,1.7-0.6,2.1-1.4
				l246.3,96.2C-8.5,254-8.6,254.2-8.6,254.4z M-557,261.2l60-17.3c0.4,1,1.3,1.6,2.4,1.6c0.4,0,0.8-0.1,1.2-0.3l49.2,73.9
				c-0.2,0.2-0.4,0.4-0.5,0.6l-112.4-57.1c0.1-0.3,0.2-0.6,0.2-0.9C-556.9,261.5-557,261.3-557,261.2z M-652.6,210
				c0,0.1-0.1,0.3-0.1,0.4c0,1.2,0.9,2.2,2,2.5l-14.5,107.8c0,0,0,0-0.1,0c-0.4,0-0.8,0.1-1.1,0.3L-755,181.6c0.3-0.3,0.6-0.6,0.8-1
				l19.7,5.7L-652.6,210z M-4.5,256.6c0.7-0.5,1.1-1.2,1.1-2.1c0-0.1-0.1-0.2-0.1-0.4L127,220.1c0.2,0.4,0.4,0.7,0.7,1L44.1,340.8
				c-0.4-0.2-0.8-0.4-1.2-0.4c-0.4,0-0.7,0.1-1,0.2l-27.6-50L-4.5,256.6z M45.1,341.9c-0.1-0.3-0.3-0.5-0.6-0.7l57.7-82.5l25.9-37.1
				c0.4,0.2,0.8,0.4,1.2,0.4c0.7,0,1.4-0.3,1.9-0.8l68.9,53.6c-0.2,0.4-0.4,0.8-0.4,1.3c0,0.3,0.1,0.5,0.1,0.7L120.7,310L45.1,341.9
				z M-494.2,240.4c-0.1,0-0.3-0.1-0.4-0.1c-1.4,0-2.6,1.2-2.6,2.6c0,0.2,0.1,0.3,0.1,0.4l-60,17.3c-0.2-0.4-0.5-0.8-0.8-1
				l103.5-166.7c0.1,0,0.1,0.1,0.2,0.1l-24.6,90.8L-494.2,240.4z M-455.7,91.7L-648,208.9c-0.5-0.6-1.2-1-2-1c0,0-0.1,0-0.1,0
				L-667,88.5c1-0.3,1.8-1.1,1.9-2.1l209.2,4.5C-455.9,91.1-455.8,91.4-455.7,91.7z M-667.7,88.6C-667.6,88.6-667.6,88.6-667.7,88.6
				l17,119.3c-0.8,0.2-1.5,0.7-1.8,1.5L-754.1,180c0-0.1,0.1-0.3,0.1-0.4c0-0.6-0.3-1.2-0.6-1.7l85.4-89.9
				C-668.8,88.4-668.3,88.6-667.7,88.6z M-662.9,322.2l101.3-59.1c0.5,0.6,1.2,1.1,2.1,1.1c0.9,0,1.7-0.5,2.1-1.2l112.4,57.1
				c-0.1,0.2-0.1,0.4-0.1,0.7l-217.6,2.2C-662.8,322.7-662.8,322.4-662.9,322.2z M-197.8,377.5c-0.4,0-0.7,0.1-1,0.2l-58.8-102.5
				c0.3-0.2,0.6-0.5,0.7-0.8l221.2,92.2c-0.1,0.2-0.1,0.4-0.1,0.7l-159.5,12.4C-195.5,378.5-196.5,377.5-197.8,377.5z M372,323.6
				l26.3-140.9c0.1,0,0.1,0,0.2,0c0,0,0.1,0,0.1,0l22.5,145.8c-0.9,0.3-1.6,1-1.8,2l-45.4-4.5C373.9,324.8,373.1,323.9,372,323.6z
				 M630.8,205.2l-79.7,120.7c-0.1-0.1-0.2-0.1-0.4-0.2l25-116.5l1.2-5.7c0.1,0,0.2,0.1,0.3,0.1c1.3,0,2.3-1,2.5-2.2l50.2,2
				C629.9,204.2,630.3,204.8,630.8,205.2z M423.9,329.6l151.5-126.6c0.3,0.3,0.6,0.5,1,0.6l-26.2,122.2c-0.1,0-0.2-0.1-0.3-0.1
				c-1.4,0-2.4,1.1-2.6,2.4l-123.1,2.6C424.2,330.2,424.1,329.9,423.9,329.6z M551.6,326.2l79.7-120.7c0.4,0.2,0.7,0.3,1.2,0.3
				c1.3,0,2.4-1,2.5-2.3l56.6,0.5c0,0.4,0.2,0.8,0.5,1.2L551.7,326.3C551.7,326.3,551.6,326.3,551.6,326.2z M574.6,201
				C574.6,201,574.6,201,574.6,201c0,0.6,0.2,1,0.5,1.4L423.6,329.1c-0.5-0.5-1.1-0.7-1.8-0.7c0,0-0.1,0-0.1,0l-22.5-145.8
				c0.9-0.2,1.6-1,1.8-1.9L574.6,201z M396,179.7c0,0.1-0.1,0.3-0.1,0.4c0,0,0,0.1,0,0.1l-264.1,38.4c-0.3-1.1-1.3-2-2.5-2
				c-0.2,0-0.4,0.1-0.5,0.1l-40-119.6c0.6-0.3,1.1-0.8,1.3-1.4L396,179.7z M85.1,94.8C85.1,94.8,85.1,94.8,85.1,94.8
				c0,0.9,0.4,1.6,1.1,2.1L-4.9,252.1c-0.3-0.1-0.7-0.2-1.1-0.2c-0.3,0-0.5,0.1-0.7,0.2L-81.4,76.4c0.6-0.4,1.1-0.9,1.2-1.7
				L85.1,94.8z M-84.8,75.5c0.5,0.7,1.2,1.3,2.2,1.3c0.3,0,0.5-0.1,0.7-0.2l74.6,175.6c-0.4,0.2-0.8,0.6-1,1.1l-246.3-96.2
				c0.1-0.2,0.1-0.4,0.1-0.7c0-0.3-0.1-0.6-0.2-0.8L-84.8,75.5z M-259.5,155.9c0,0.2-0.1,0.4-0.1,0.5c0,0.2,0.1,0.4,0.1,0.6
				l-232.8,84.7c-0.3-0.6-0.8-1-1.4-1.3l25.2-93.1l14.7-54.3c0.1,0,0.3,0.1,0.4,0.1c1.1,0,1.9-0.6,2.4-1.5L-259.5,155.9z
				 M-736.9,364.2c-0.5-0.6-1.2-1.1-2-1.1l-17.1-181c0.2,0,0.4-0.1,0.6-0.2l88.6,139.4c-0.6,0.5-1,1.2-1,2c0,0.4,0.1,0.7,0.2,1
				L-736.9,364.2z M-440,321.4c0-0.1,0.1-0.2,0.1-0.3c0-0.1-0.1-0.2-0.1-0.4l178.5-46.6c0.4,1,1.3,1.7,2.4,1.7c0.4,0,0.7-0.1,1-0.2
				l58.8,102.5c-0.4,0.3-0.7,0.7-0.9,1.2L-440,321.4z M-30.9,366.3c-0.3-0.7-0.8-1.1-1.5-1.4l26-107.9c0.1,0,0.2,0.1,0.3,0.1
				c0.4,0,0.7-0.1,1-0.2L41.4,341c-0.7,0.5-1.1,1.2-1.1,2.1c0,0.2,0.1,0.3,0.1,0.5L-30.9,366.3z M227.1,357.7
				c-0.3-1-1.3-1.8-2.4-1.8c-0.1,0-0.3,0.1-0.4,0.1l-4.6-17.1l-16.4-60.5c0.7-0.3,1.2-0.8,1.5-1.4l164.1,48.6c0,0.2-0.1,0.3-0.1,0.5
				c0,0.1,0,0.2,0.1,0.3L227.1,357.7z"/>
		</g>
	</g>
</g>
<g>
	<defs>
		<path id="SVGID_5_" d="M0,0v440c0,0,450-100,960-100s960-118,960-118V0H0z"/>
	</defs>
	<clipPath id="SVGID_6_">
		<use xlink:href="#SVGID_5_"  style="overflow:visible;"/>
	</clipPath>
	<g class="st5">
		<path class="st3" d="M1168.3,197.9l23.6-249.4c-1.6-0.3-2.9-1.8-2.9-3.5c0-2,1.6-3.6,3.6-3.6c2,0,3.6,1.6,3.6,3.6
			c0,0.5-0.1,1-0.3,1.5l95.4,54.9c0.7-0.9,1.7-1.5,2.9-1.5c1.9,0,3.4,1.4,3.6,3.2l299.9,3c0.2-1.8,1.7-3.2,3.5-3.2
			c1.6,0,2.9,1,3.4,2.4l330.6-79.8c0-0.2,0-0.3,0-0.5c0-2,1.6-3.6,3.6-3.6c1.9,0,3.5,1.6,3.6,3.5L2162.1-58c0.3-1.7,1.8-2.9,3.5-2.9
			c2,0,3.6,1.6,3.6,3.6c0,0.2,0,0.5-0.1,0.7l98.1,31.2c0.6-1.3,1.8-2.1,3.3-2.1c1.8,0,3.2,1.3,3.5,2.9l243.6-20.6
			c0-1.9,1.6-3.5,3.6-3.5c2,0,3.6,1.6,3.6,3.6c0,0.1,0,0.3,0,0.4L2720-1.5c0.5-1.4,1.8-2.5,3.4-2.5c1.7,0,3.2,1.2,3.5,2.9l62.5-6.1
			c0-2,1.6-3.6,3.6-3.6c1.9,0,3.4,1.4,3.6,3.3l169.6,3.6c0.2-1.8,1.7-3.1,3.5-3.1c2,0,3.6,1.6,3.6,3.6c0,0.8-0.2,1.5-0.6,2
			L3166,165.5c0.6-0.6,1.5-1,2.4-1c2,0,3.6,1.6,3.6,3.6c0,2-1.6,3.6-3.6,3.6c-1.8,0-3.3-1.4-3.6-3.2l-77.9,0.7
			c-0.2,1.8-1.7,3.2-3.6,3.2c-1.8,0-3.3-1.3-3.5-3.1l-69.1,2.8c-0.1,1.9-1.7,3.4-3.6,3.4c-1.7,0-3.1-1.2-3.5-2.8l-239.2,28
			c0,0,0,0,0,0c0,2-1.6,3.6-3.6,3.6c-1.5,0-2.8-0.9-3.3-2.3l-421.6,115.8c0,0.2,0.1,0.4,0.1,0.6c0,2-1.6,3.6-3.6,3.6
			c-1.7,0-3.1-1.2-3.5-2.8l-227.8,27.6c0,0,0,0,0,0.1c0,2-1.6,3.6-3.6,3.6c-2,0-3.6-1.6-3.6-3.6c0-0.4,0.1-0.8,0.2-1.2l-234-110.4
			c-0.6,1-1.8,1.7-3.1,1.7c-1.4,0-2.7-0.9-3.3-2.1l-263.9,88.5c0.1,0.3,0.1,0.5,0.1,0.8c0,2-1.6,3.6-3.6,3.6c-1.8,0-3.3-1.4-3.5-3.1
			l-288.4,6.2c-0.2,1.8-1.7,3.3-3.6,3.3c-2,0-3.6-1.6-3.6-3.6c0-0.9,0.3-1.7,0.9-2.3l-117.7-123.9c-0.6,0.5-1.4,0.8-2.2,0.8
			c-2,0-3.6-1.6-3.6-3.6C1164.8,199.5,1166.4,197.9,1168.3,197.9z M3165.5,166.1L2972.1-0.8c-0.1,0.1-0.1,0.1-0.2,0.1l109.8,166.4
			c0.5-0.3,1-0.4,1.6-0.4c1.8,0,3.3,1.4,3.5,3.2l77.9-0.7C3164.9,167.1,3165.2,166.6,3165.5,166.1z M2332.4,314.8
			c0.3,0,0.5,0,0.8,0.1l45-134.3l10.2-30.4c-1.2-0.6-2.1-1.8-2.1-3.3c0-0.2,0-0.4,0.1-0.5l-179.8-46.8c-0.2,0.7-0.7,1.2-1.2,1.6
			l125.6,214C2331.4,314.9,2331.9,314.8,2332.4,314.8z M1443.6,89l82.6,23.8c0.5-1.3,1.8-2.2,3.3-2.2c0.6,0,1.2,0.2,1.7,0.4
			L1599,9.2c-0.3-0.2-0.5-0.5-0.7-0.8l-154.9,78.7c0.2,0.4,0.2,0.8,0.2,1.3C1443.6,88.6,1443.6,88.8,1443.6,89z M1584.2,321.4
			L1441.6,91.6c-0.5,0.2-1,0.4-1.6,0.4c-1.2,0-2.3-0.6-2.9-1.5l-51.8,29.3l-66.8,37.8c0.2,0.4,0.3,0.9,0.3,1.4
			c0,0.5-0.1,1.1-0.4,1.5L1583.6,322C1583.8,321.8,1584,321.6,1584.2,321.4z M1297.1,5.5c-0.5,0.7-1.2,1.2-2,1.4l20,148.5
			c0,0,0.1,0,0.1,0c1.2,0,2.3,0.6,2.9,1.5l118.6-67.1c-0.2-0.4-0.3-0.9-0.3-1.4c0-0.5,0.1-1,0.3-1.5l-103.7-60.5L1297.1,5.5z
			 M1533.1,114.1C1533.1,114.2,1533.1,114.2,1533.1,114.1c0,0.4,0,0.7-0.1,0.9l320.9,116.8c0.5-1.1,1.5-1.8,2.8-2l-2-108.6
			l-0.8-45.2c-1.6-0.1-2.8-1.2-3.2-2.7l-209.6,27L1533.1,114.1z M2757.6,199.5L2493.4,70.6c-0.6,1-1.8,1.7-3,1.7
			c-1,0-1.9-0.4-2.6-1.1l-94.9,73.8c0.3,0.5,0.5,1.2,0.5,1.9c0,0,0,0.1,0,0.1l364,52.9C2757.5,199.8,2757.5,199.6,2757.6,199.5z
			 M2205.2,95.3c0.9,0.6,1.5,1.7,1.5,2.9c0,0.2,0,0.4-0.1,0.5l179.8,46.8c0.2-0.6,0.6-1,1-1.4l-28.9-41.4l-86.3-123.5
			c-0.5,0.3-1.1,0.5-1.7,0.5c-0.5,0-1-0.1-1.4-0.3l-0.9,1.7L2205.2,95.3z M2273.7-22.2c-0.2,0.4-0.5,0.7-0.8,1l115.2,164.9
			c0.5-0.3,1.1-0.5,1.7-0.5c1,0,1.9,0.4,2.6,1.1l94.9-73.8c-0.3-0.5-0.5-1.2-0.5-1.9c0-0.4,0.1-0.7,0.2-1L2442.6,49L2273.7-22.2z
			 M2723.6,3.2c-0.1,0-0.2,0-0.3,0c-1.5,0-2.8-0.9-3.3-2.2l-226.2,67c0,0.2,0.1,0.4,0.1,0.6c0,0.4-0.1,0.8-0.2,1.2l249.4,121.7
			l14.8,7.2c0.5-0.7,1.2-1.3,2-1.5l-21.8-116.7L2723.6,3.2z M2199.7,97.6c0.2-1.3,1.1-2.3,2.3-2.7l-35.9-148.7c-0.2,0-0.3,0-0.5,0
			c-1.4,0-2.5-0.8-3.1-1.9L1857.6,71.5c0.1,0.3,0.1,0.6,0.2,0.9l4.8,0.4L2199.7,97.6z M1530.1,117.8c-0.2,0-0.4,0.1-0.6,0.1
			c-2,0-3.6-1.6-3.6-3.6c0-0.2,0-0.4,0.1-0.6l-13.1-3.8l-69.5-20.1c-0.2,0.6-0.6,1.1-1.1,1.5L1584.9,321c0.1,0,0.2-0.1,0.3-0.1
			l-51.5-189.8L1530.1,117.8z M1311.7,159.6c0-0.2-0.1-0.4-0.1-0.6c0-1.7,1.2-3.1,2.7-3.5l-15.3-113.1L1294.4,7c0,0-0.1,0-0.1,0
			c-0.6,0-1.1-0.1-1.6-0.4l-82.9,130.5l-39.2,61.6c0.5,0.4,0.9,0.9,1.1,1.4l64.7-18.7L1311.7,159.6z M1297.5,4.9l94.7,55.2
			l44.9,26.2c0.7-0.9,1.7-1.5,2.9-1.5c1.3,0,2.4,0.7,3,1.6l154.9-78.7c-0.1-0.3-0.2-0.6-0.2-0.9l-299.9-3
			C1297.8,4.2,1297.7,4.5,1297.5,4.9z M1604.6,7.7c-0.5,1.4-1.8,2.3-3.4,2.3c-0.6,0-1.2-0.2-1.7-0.4l-67.8,101.9
			c0.6,0.5,1,1.2,1.2,1.9l258-33.2l59.7-7.7c0,0,0-0.1,0-0.1c0-0.2,0-0.4,0.1-0.5l-112.1-29.3L1604.6,7.7z M1938.8-71.4
			c-0.5,0-1-0.1-1.4-0.3l-39.1,68.1l-41.9,73.1c0.4,0.3,0.8,0.7,1,1.2l304.9-127.1c-0.1-0.3-0.1-0.6-0.2-0.9l-219.8-17.1
			C1942-72.7,1940.5-71.4,1938.8-71.4z M2274-22.9L2487.2,67c0.6-1.1,1.8-1.9,3.1-1.9c0.2,0,0.4,0,0.6,0.1l29.1-107
			c-1.1-0.4-2-1.4-2.2-2.7l-243.6,20.7C2274.1-23.5,2274.1-23.2,2274-22.9z M2724.4,3l36.2,194.2c0.1,0,0.2,0,0.3,0
			c0.1,0,0.1,0,0.2,0L2792-3.8c-1.3-0.3-2.3-1.4-2.6-2.7L2727-0.4C2726.9,1.3,2725.9,2.6,2724.4,3z M2795.9-5.2l160.6,134.3
			l48.2,40.3c0.4-0.4,0.9-0.6,1.4-0.8L2970,0.1c-0.1,0-0.2,0-0.4,0c-1.9,0-3.4-1.4-3.6-3.3l-169.6-3.6
			C2796.4-6.2,2796.2-5.7,2795.9-5.2z M3081.1,166.1L2971.3-0.2c-0.2,0.1-0.3,0.2-0.5,0.2l20.8,96.9l15.3,71.5c0.1,0,0.2,0,0.4,0
			c1.8,0,3.3,1.3,3.5,3.1l69.1-2.8C3079.9,167.6,3080.4,166.7,3081.1,166.1z M2199.7,99.2c-0.1-0.3-0.1-0.5-0.1-0.8l-138.8-10.3
			l-203.1-15c-0.3,1.5-1.5,2.7-3.1,2.9l2.8,153.9c1.3,0.1,2.3,0.9,2.9,1.9l326.6-127.6L2199.7,99.2z M1583.2,322.7l-60.8-37.1
			l-204.3-124.4c-0.7,0.9-1.7,1.4-2.8,1.4c0,0-0.1,0-0.1,0l-23.3,164.5c1.4,0.4,2.5,1.5,2.7,3l288.4-6.2
			C1582.9,323.5,1583,323,1583.2,322.7z M1290.9,327c0,0,0.1,0,0.1,0l23.3-164.5c-1.1-0.3-2-1.1-2.4-2.1l-140,40.5
			c0,0.2,0.1,0.4,0.1,0.6c0,0.9-0.3,1.7-0.9,2.3l117.7,123.9C1289.4,327.2,1290.1,327,1290.9,327z M1195.6-52.9
			c-0.6,0.9-1.7,1.5-2.9,1.5L1169.1,198c0.3,0.1,0.6,0.2,0.9,0.3L1292,6.2c-0.8-0.7-1.4-1.7-1.4-2.8c0-0.5,0.1-1,0.3-1.5
			L1195.6-52.9z M1604.8,6c0,0.2,0,0.3,0,0.5c0,0.2,0,0.4-0.1,0.5l127,33.2l119,31.1c0.5-1.4,1.8-2.3,3.3-2.3c0.5,0,1,0.1,1.4,0.3
			l81-141.3c-0.6-0.4-1-1-1.3-1.7L1604.8,6z M2168.9-55.9c-0.4,0.9-1.2,1.6-2.1,1.9l35.9,148.7c0.2,0,0.3,0,0.5,0
			c0.5,0,1,0.1,1.4,0.3l63.9-116c-0.9-0.6-1.5-1.7-1.5-2.9c0-0.2,0-0.5,0.1-0.7L2168.9-55.9z M2524.6-44c-0.5,1.4-1.8,2.5-3.4,2.5
			c-0.2,0-0.4,0-0.6-0.1l-27.9,102.8l-1.1,4.1c0.9,0.4,1.6,1.1,2,2l226.2-67c0-0.2-0.1-0.4-0.1-0.6c0-0.1,0-0.3,0-0.4L2524.6-44z
			 M3003.6,171.9C3003.6,171.9,3003.6,171.9,3003.6,171.9c0-0.8,0.2-1.5,0.6-2L2795.4-4.6c-0.6,0.6-1.5,1-2.5,1c-0.1,0-0.1,0-0.2,0
			l-7.4,47.8l-23.6,153.1c1.3,0.3,2.3,1.4,2.6,2.7L3003.6,171.9z M2757.4,201.3c0-0.2-0.1-0.4-0.1-0.6c0,0,0-0.1,0-0.1l-364-52.9
			c-0.4,1.6-1.8,2.7-3.5,2.7c-0.3,0-0.5,0-0.8-0.1l-55.2,164.8c0.8,0.4,1.5,1.1,1.8,2L2757.4,201.3z M2328.8,318.5
			C2328.8,318.4,2328.8,318.4,2328.8,318.5c0-1.2,0.6-2.3,1.5-2.9l-5.9-10l-119.7-203.9c-0.5,0.2-0.9,0.3-1.5,0.3
			c-0.4,0-0.7-0.1-1-0.2l-102.9,242.1c0.9,0.5,1.5,1.3,1.8,2.3L2328.8,318.5z M2094.5,345c0.6-1,1.8-1.7,3.1-1.7
			c0.4,0,0.7,0.1,1,0.2l102.9-242.1c-0.6-0.3-1.1-0.9-1.4-1.5l-50,19.5l-289.5,113.1c0.1,0.3,0.1,0.6,0.1,0.9c0,0.4-0.1,0.8-0.2,1.2
			L2094.5,345z M1853.6,234.2c-0.1-0.3-0.1-0.5-0.1-0.8c0-0.3,0-0.6,0.1-0.9l-320.9-116.8c-0.4,0.8-1.1,1.4-1.9,1.8l55.1,203.1
			c0.2,0,0.4-0.1,0.6-0.1c1.4,0,2.7,0.9,3.3,2.1L1853.6,234.2z"/>
		<path class="st3" d="M1286.3,179.1l26.2-276.7c-1.8-0.4-3.2-2-3.2-3.9c0-2.2,1.8-4,4-4c2.2,0,4,1.8,4,4c0,0.6-0.1,1.1-0.3,1.6
			L1422.8-39c0.7-1,1.9-1.7,3.2-1.7c2.1,0,3.8,1.6,3.9,3.6l332.7,3.3c0.2-2,1.9-3.5,3.9-3.5c1.7,0,3.2,1.1,3.7,2.6l366.7-88.5
			c0-0.2-0.1-0.3-0.1-0.5c0-2.2,1.8-4,4-4c2.2,0,3.9,1.7,4,3.9l243.8,19c0.3-1.9,2-3.3,3.9-3.3c2.2,0,4,1.8,4,4c0,0.3,0,0.5-0.1,0.8
			l108.8,34.6c0.6-1.4,2-2.4,3.6-2.4c1.9,0,3.6,1.4,3.9,3.2l270.2-22.9c0-2.2,1.8-3.9,4-3.9c2.2,0,4,1.8,4,4c0,0.2,0,0.3,0,0.4
			l216.5,48c0.5-1.6,2-2.7,3.8-2.7c1.9,0,3.5,1.4,3.9,3.2l69.3-6.8c0-2.2,1.8-4,4-4c2.1,0,3.8,1.6,4,3.6l188.2,4
			c0.2-2,1.9-3.5,3.9-3.5c2.2,0,4,1.8,4,4c0,0.8-0.3,1.6-0.7,2.3l214.6,185.1c0.7-0.7,1.7-1.1,2.7-1.1c2.2,0,4,1.8,4,4s-1.8,4-4,4
			c-2,0-3.7-1.5-3.9-3.5l-86.5,0.8c-0.2,2-1.9,3.6-3.9,3.6c-2,0-3.6-1.5-3.9-3.4l-76.7,3.1c-0.1,2.1-1.8,3.7-4,3.7
			c-1.9,0-3.5-1.3-3.9-3.1l-265.4,31.1c0,0,0,0,0,0c0,2.2-1.8,4-4,4c-1.7,0-3.1-1.1-3.7-2.5l-467.8,128.4c0,0.2,0.1,0.4,0.1,0.6
			c0,2.2-1.8,4-4,4c-1.9,0-3.5-1.3-3.9-3.1l-252.7,30.6c0,0,0,0,0,0.1c0,2.2-1.8,4-4,4c-2.2,0-4-1.8-4-4c0-0.5,0.1-0.9,0.2-1.3
			l-259.6-122.4c-0.7,1.1-2,1.9-3.4,1.9c-1.6,0-3-1-3.6-2.3L1754,318.4c0.1,0.3,0.1,0.6,0.1,0.9c0,2.2-1.8,4-4,4
			c-2,0-3.7-1.5-3.9-3.5l-319.9,6.9c-0.2,2-1.9,3.6-3.9,3.6c-2.2,0-4-1.8-4-4c0-1,0.4-1.9,1-2.6l-130.6-137.4
			c-0.7,0.5-1.5,0.8-2.4,0.8c-2.2,0-4-1.8-4-4C1282.3,180.9,1284.1,179.2,1286.3,179.1z M3501.9,143.8L3287.4-41.3
			c-0.1,0.1-0.1,0.1-0.2,0.2L3409,143.4c0.5-0.3,1.2-0.5,1.8-0.5c2,0,3.7,1.5,3.9,3.5l86.5-0.8
			C3501.3,145,3501.5,144.3,3501.9,143.8z M2393.2-100.1c-0.2,0-0.3,0.1-0.5,0.1c-1.5,0-2.8-0.8-3.5-2.1L2098.3,19.1L2051,38.8
			c0.1,0.3,0.2,0.7,0.2,1l17.9,1.3l361.4,26.7c0.3-1.4,1.3-2.6,2.6-3l-2.1-8.8L2393.2-100.1z M1591.6,58.3l91.6,26.4
			c0.6-1.5,2-2.5,3.7-2.5c0.7,0,1.3,0.2,1.8,0.5l75.3-113c-0.3-0.3-0.6-0.5-0.8-0.9l-171.8,87.4c0.2,0.4,0.3,0.9,0.3,1.4
			C1591.7,57.9,1591.7,58.1,1591.6,58.3z M1766.6-29.3c-0.7,0-1.3-0.2-1.8-0.5l-75.3,113c0.7,0.5,1.1,1.3,1.3,2.1l352.4-45.3
			c0,0,0-0.1,0-0.1c0-0.2,0-0.4,0.1-0.6l-272.9-71.3C1769.7-30.4,1768.3-29.3,1766.6-29.3z M1426.9-32.8l3.2,23.7l19,141.1
			c0,0,0.1,0,0.1,0c1.3,0,2.5,0.7,3.2,1.7l131.6-74.4c-0.2-0.5-0.3-1-0.3-1.6c0-0.6,0.1-1.1,0.4-1.6l-154.9-90.3
			C1428.6-33.6,1427.9-33,1426.9-32.8z M1445.4,136.7c0-0.2-0.1-0.5-0.1-0.7c0-1.9,1.3-3.4,3-3.9l-2-14.6l-20.2-150.1
			c0,0-0.1,0-0.1,0c-0.6,0-1.2-0.2-1.8-0.4L1288.8,180c0.5,0.4,1,1,1.2,1.6l33.8-9.8L1445.4,136.7z M2577.7,308.8
			c0.3,0,0.6,0,0.9,0.1l61.2-182.8c-1.4-0.6-2.3-2-2.3-3.6c0-0.2,0-0.4,0.1-0.6L2438.1,70c-0.3,0.7-0.7,1.3-1.4,1.8l139.3,237.4
			C2576.6,308.9,2577.1,308.8,2577.7,308.8z M2645.4,122.6l403.9,58.6c0-0.1,0.1-0.2,0.1-0.4L2756.3,37.9c-0.7,1.1-1.9,1.9-3.4,1.9
			c-1.1,0-2.1-0.5-2.9-1.2l-105.3,81.9c0.4,0.6,0.6,1.3,0.6,2.1C2645.4,122.5,2645.4,122.6,2645.4,122.6z M3011.4-36.9
			c-1.7,0-3.1-1-3.7-2.5L2756.8,35c0,0.2,0.1,0.5,0.1,0.7c0,0.5-0.1,0.9-0.3,1.4l75.7,37l217.4,106.1c0.5-0.8,1.3-1.4,2.2-1.7
			l-15.7-84.3l-24.5-131.1C3011.6-36.9,3011.5-36.9,3011.4-36.9z M2511.7-64l127.8,183c0.6-0.3,1.2-0.5,1.9-0.5
			c1.1,0,2.1,0.5,2.9,1.2l105.3-81.9c-0.4-0.6-0.6-1.3-0.6-2.1c0-0.4,0.1-0.8,0.2-1.1l-236.5-99.7C2512.3-64.6,2512-64.3,2511.7-64z
			 M2438.3,68.6c0,0.2,0,0.4-0.1,0.6l199.4,51.9c0.2-0.6,0.6-1.2,1.1-1.6L2511-63.5c-0.6,0.3-1.2,0.5-1.9,0.5
			c-0.5,0-1.1-0.1-1.5-0.3l-70.9,128.6C2437.7,66,2438.3,67.2,2438.3,68.6z M2049.9,214.6l-3.1-170.7c-1.7-0.2-3.1-1.4-3.5-3
			l-352.4,45.3c0,0,0,0.1,0,0.1c0,0.3-0.1,0.6-0.1,1l356,129.6C2047.4,215.6,2048.6,214.8,2049.9,214.6z M1747,316.8
			c0.2-0.3,0.4-0.5,0.7-0.7L1589.4,61.2c-0.5,0.3-1.1,0.4-1.7,0.4c-1.3,0-2.5-0.7-3.2-1.7l-131.6,74.4c0.2,0.5,0.3,1,0.3,1.6
			c0,0.6-0.1,1.2-0.4,1.7l146,88.9L1747,316.8z M1429.6-35l154.9,90.3c0.7-1,1.9-1.6,3.2-1.6c1.4,0,2.6,0.7,3.3,1.8l157-79.8
			l14.8-7.5c-0.1-0.3-0.2-0.7-0.2-1l-332.7-3.3C1429.9-35.8,1429.8-35.4,1429.6-35z M2141-119.6c-0.6,0-1.1-0.1-1.6-0.3l-89.9,156.7
			c0.5,0.3,0.9,0.8,1.1,1.3l338.2-141c-0.1-0.3-0.2-0.7-0.2-1l-243.8-19C2144.6-121.1,2142.9-119.6,2141-119.6z M2512.9-65.8
			l236.5,99.7c0.7-1.2,2-2.1,3.5-2.1c0.2,0,0.4,0,0.6,0.1l32.2-118.7c-1.3-0.5-2.2-1.6-2.5-3l-270.2,22.9
			C2513-66.5,2513-66.2,2512.9-65.8z M3012.6-37.1l40.2,215.4c0.1,0,0.2,0,0.3,0c0.1,0,0.1,0,0.2,0l13.5-87.5l20.9-135.5
			c-1.5-0.4-2.6-1.6-2.9-3l-69.3,6.8C3015.4-39.1,3014.2-37.6,3012.6-37.1z M3091.9-46.2l222.3,185.9l9.3,7.8c0.4-0.4,1-0.7,1.5-0.9
			l-14.7-68.8l-25.3-118c-0.1,0-0.3,0-0.4,0c-2.1,0-3.8-1.6-3.9-3.6l-188.2-4C3092.5-47.3,3092.3-46.7,3091.9-46.2z M3408.3,143.8
			L3286.5-40.7c-0.2,0.1-0.4,0.2-0.6,0.2l40,186.8c0.1,0,0.3,0,0.4,0c2,0,3.6,1.5,3.9,3.4l76.7-3.1
			C3407,145.5,3407.5,144.5,3408.3,143.8z M2430.5,69.6c-0.1-0.3-0.1-0.6-0.1-0.9l-379.3-28c-0.3,1.7-1.7,3-3.4,3.2l0.7,37.3
			l2.4,133.4c1.4,0.1,2.6,0.9,3.2,2.1l265-103.5L2430.5,69.6z M1687.6,90.2c-0.2,0-0.4,0.1-0.6,0.1c-2.2,0-4-1.8-4-4
			c0-0.2,0-0.5,0.1-0.7l-91.6-26.4c-0.3,0.7-0.7,1.2-1.2,1.6l158.3,254.9c0.1,0,0.2-0.1,0.3-0.1l-33.6-123.9L1687.6,90.2z
			 M1746.5,317.5l-69.3-42.2l-224.9-137c-0.7,1-1.9,1.6-3.2,1.6c0,0-0.1,0-0.1,0l-25.8,182.5c1.6,0.4,2.8,1.7,3,3.3l319.9-6.9
			C1746.2,318.4,1746.3,317.9,1746.5,317.5z M1422.3,322.3c0,0,0.1,0,0.1,0l18.8-132.9l7-49.6c-1.2-0.3-2.2-1.2-2.7-2.3l-155.4,45
			c0,0.2,0.1,0.5,0.1,0.7c0,1-0.4,1.9-1,2.6l130.6,137.4C1420.6,322.6,1421.4,322.3,1422.3,322.3z M1316.5-99.2
			c-0.7,1-1.9,1.6-3.2,1.6l-26.2,276.7c0.3,0.1,0.7,0.2,1,0.3l135.4-213.1c-0.9-0.7-1.5-1.8-1.5-3.1c0-0.6,0.1-1.1,0.3-1.6
			L1316.5-99.2z M1770.5-33.8c0,0.2,0.1,0.3,0.1,0.5c0,0.2,0,0.4-0.1,0.6l272.9,71.3c0.6-1.5,2-2.6,3.7-2.6c0.6,0,1.1,0.1,1.6,0.3
			l89.9-156.7c-0.6-0.5-1.1-1.1-1.4-1.9L1770.5-33.8z M2396.3-102.4c-0.4,1-1.3,1.8-2.3,2.1l39.8,164.9c0.2,0,0.3-0.1,0.5-0.1
			c0.5,0,1.1,0.1,1.5,0.3l46.8-85l24.1-43.7c-1-0.7-1.7-1.9-1.7-3.3c0-0.3,0-0.5,0.1-0.8L2396.3-102.4z M2791-89.3
			c-0.5,1.6-2,2.7-3.8,2.7c-0.2,0-0.4,0-0.6-0.1L2754.3,32c1,0.4,1.8,1.2,2.2,2.2l250.9-74.4c0-0.2-0.1-0.5-0.1-0.7
			c0-0.2,0-0.3,0-0.4L2791-89.3z M3322.3,150.3C3322.3,150.3,3322.3,150.3,3322.3,150.3c0-0.9,0.2-1.6,0.7-2.3L3091.4-45.6
			c-0.7,0.7-1.7,1.1-2.8,1.1c-0.1,0-0.1,0-0.2,0l-34.3,222.9c1.4,0.4,2.5,1.5,2.9,3L3322.3,150.3z M3049.2,182.9
			c0-0.2-0.1-0.4-0.1-0.6c0-0.1,0-0.1,0-0.2l-403.9-58.6c-0.4,1.7-2,3-3.8,3c-0.3,0-0.6,0-0.9-0.1l-61.2,182.8
			c0.9,0.4,1.7,1.2,2,2.2L3049.2,182.9z M2573.7,312.8C2573.7,312.8,2573.7,312.8,2573.7,312.8c0-1.4,0.6-2.5,1.6-3.3L2436,72.2
			c-0.5,0.2-1.1,0.4-1.6,0.4c-0.4,0-0.8-0.1-1.2-0.2L2319,340.9c1,0.5,1.7,1.5,1.9,2.6L2573.7,312.8z M2313.7,342.3
			c0.7-1.1,2-1.9,3.4-1.9c0.4,0,0.8,0.1,1.2,0.2l114.1-268.5c-0.7-0.4-1.2-0.9-1.6-1.6l-199.5,77.9l-177.1,69.2
			c0.1,0.3,0.2,0.7,0.2,1c0,0.5-0.1,0.9-0.2,1.3L2313.7,342.3z M2046.5,219.4c-0.1-0.3-0.1-0.6-0.1-0.9c0-0.3,0.1-0.6,0.1-1
			l-143.6-52.3L1690.5,88c-0.4,0.9-1.2,1.6-2.1,2l33.2,122.2l28,103.1c0.2,0,0.4-0.1,0.6-0.1c1.6,0,3,1,3.6,2.3L2046.5,219.4z"/>
		<g>
			<path class="st4" d="M1740.1,111.7c1.3,0,2.4,1,2.5,2.3l56.6-0.5c0.1-1.3,1.2-2.4,2.6-2.4c1.3,0,2.3,1,2.5,2.2l50.2-2
				c0.1-1.4,1.2-2.4,2.6-2.4c1.2,0,2.2,0.9,2.5,2l173.5-20.3c0,0,0,0,0,0c0-1.4,1.2-2.6,2.6-2.6c1.1,0,2,0.7,2.4,1.7l305.9-84
				c0-0.1-0.1-0.3-0.1-0.4c0-1.4,1.2-2.6,2.6-2.6c1.2,0,2.2,0.9,2.5,2l165.3-20c0,0,0,0,0,0c0-1.4,1.2-2.6,2.6-2.6
				c1.4,0,2.6,1.2,2.6,2.6c0,0.3-0.1,0.6-0.2,0.8L2689,65.5c0.5-0.7,1.2-1.3,2.2-1.3c1.1,0,1.9,0.6,2.4,1.5l191.5-64.2
				c0-0.2-0.1-0.4-0.1-0.5c0-1.4,1.2-2.6,2.6-2.6c1.3,0,2.4,1,2.5,2.3l209.2-4.5c0.1-1.3,1.2-2.4,2.6-2.4c1.4,0,2.6,1.2,2.6,2.6
				c0,0.6-0.3,1.2-0.6,1.7l85.4,89.9c0.4-0.3,1-0.6,1.6-0.6c1.4,0,2.6,1.2,2.6,2.6c0,1.4-1.2,2.6-2.6,2.6l-17.1,181
				c1.2,0.2,2.1,1.2,2.1,2.5c0,1.4-1.2,2.6-2.6,2.6s-2.6-1.2-2.6-2.6c0-0.4,0.1-0.7,0.2-1l-69.3-39.8c-0.5,0.6-1.2,1.1-2.1,1.1
				c-1.4,0-2.4-1-2.6-2.4l-217.6-2.2c-0.2,1.3-1.2,2.3-2.5,2.3c-1.1,0-2.1-0.7-2.4-1.7l-239.8,57.9c0,0.1,0.1,0.2,0.1,0.3
				c0,1.4-1.2,2.6-2.6,2.6c-1.4,0-2.5-1.1-2.6-2.5L2470,278.3c-0.2,1.2-1.2,2.1-2.5,2.1c-1.4,0-2.6-1.2-2.6-2.6
				c0-0.2,0.1-0.3,0.1-0.5l-71.2-22.7c-0.4,0.9-1.3,1.6-2.4,1.6c-1.3,0-2.3-0.9-2.5-2.1l-176.7,15c0,1.4-1.2,2.5-2.6,2.5
				c-1.4,0-2.6-1.2-2.6-2.6c0-0.1,0-0.2,0.1-0.3l-141.6-31.4c-0.3,1-1.3,1.8-2.4,1.8c-1.3,0-2.3-0.9-2.5-2.1l-45.4,4.5
				c0,1.4-1.2,2.6-2.6,2.6c-1.4,0-2.4-1.1-2.6-2.4l-123.1-2.6c-0.2,1.3-1.2,2.3-2.5,2.3c-1.4,0-2.6-1.2-2.6-2.6c0-0.6,0.2-1,0.5-1.5
				l-140.3-121.1c-0.5,0.4-1.1,0.7-1.8,0.7c-1.4,0-2.6-1.2-2.6-2.6C1737.5,112.8,1738.6,111.7,1740.1,111.7z M2210.4,266.6
				c0.8,0.3,1.4,1,1.6,1.9l176.7-15c0-0.2,0.1-0.5,0.1-0.7l-154.7-65.2c-0.4,0.8-1.3,1.4-2.2,1.4c-0.1,0-0.3-0.1-0.4-0.1l-11.1,40.8
				L2210.4,266.6z M2062.9,233.9c1.1,0,2,0.7,2.4,1.6l164.1-48.6c0-0.2-0.1-0.3-0.1-0.5c0-0.3,0.1-0.6,0.2-0.9L2037.8,92
				c-0.3,0.5-0.8,0.9-1.4,1.1l21.3,114.1l5,26.8C2062.8,233.9,2062.8,233.9,2062.9,233.9z M2038.1,91.5l31.3,15.3l160.4,78.3
				c0.5-0.7,1.2-1.2,2.2-1.2c0.7,0,1.4,0.3,1.9,0.8l0.1-0.1l68.7-53.4c-0.2-0.4-0.4-0.8-0.4-1.3c0,0,0-0.1,0-0.1l-264.1-38.4
				C2038.1,91.3,2038.1,91.4,2038.1,91.5z M2347.6,7.6c-0.3,0.1-0.7,0.2-1.1,0.2c-0.2,0-0.4-0.1-0.5-0.1l-40,119.6
				c0.9,0.4,1.5,1.3,1.5,2.4c0,0.1-0.1,0.2-0.1,0.4l33.5,8.7l96.9,25.2c0.2-0.5,0.5-0.8,0.9-1.1l-24.2-41.3L2347.6,7.6z
				 M2441.1,167.4l26,107.9c0.1,0,0.2-0.1,0.3-0.1c1,0,1.8,0.6,2.3,1.4l221.2-92.2c-0.1-0.2-0.1-0.4-0.1-0.6l-248-18.3
				C2442.5,166.3,2441.9,167,2441.1,167.4z M2695.9,184l178.5,46.6c0.4-1,1.3-1.7,2.4-1.7c0.4,0,0.8,0.1,1.2,0.3l11.7-17.6
				l37.5-56.4c-0.4-0.4-0.7-0.8-0.8-1.4l-230.4,29.6c0,0,0,0,0,0.1C2695.9,183.8,2695.9,183.9,2695.9,184z M2889.1,3.1l103.5,166.7
				c0.3-0.2,0.7-0.3,1.1-0.3c0.9,0,1.6,0.5,2.1,1.1l86.1-48.7c-0.1-0.3-0.2-0.7-0.2-1c0-0.4,0.1-0.8,0.3-1.1l-49.6-30.2L2889.6,2.6
				C2889.4,2.8,2889.3,3,2889.1,3.1z M3098.9,231.3l-14.5-107.8c0,0,0,0-0.1,0c-0.9,0-1.6-0.5-2.1-1.1l-86.1,48.7
				c0.1,0.3,0.2,0.7,0.2,1c0,0.4-0.1,0.7-0.2,1.1l77.9,45.4l23.4,13.6C3097.8,231.7,3098.3,231.4,3098.9,231.3z M2926.4,152.8
				L2693.5,68c-0.4,0.8-1.1,1.3-2,1.4l2,111.7c1.1,0.1,2,0.9,2.3,2l160.7-20.7l69.7-9c0,0,0,0,0-0.1
				C2926.2,153.1,2926.3,153,2926.4,152.8z M2442.8,164.8l248,18.3c0.2-1.1,1.1-1.9,2.2-2.1l-2-111.7c-0.9-0.1-1.7-0.6-2.1-1.4
				l-246.3,96.2C2442.7,164.4,2442.8,164.6,2442.8,164.8z M2991.2,171.6l-60-17.3c-0.4,1-1.3,1.6-2.4,1.6c-0.4,0-0.8-0.1-1.2-0.3
				l-49.2,73.9c0.2,0.2,0.4,0.4,0.5,0.6l112.4-57.1c-0.1-0.3-0.2-0.6-0.2-0.9C2991.1,171.9,2991.2,171.8,2991.2,171.6z
				 M3086.8,120.4c0,0.1,0.1,0.3,0.1,0.4c0,1.2-0.9,2.2-2,2.5l14.5,107.8c0,0,0,0,0.1,0c0.4,0,0.8,0.1,1.1,0.3l88.6-139.4
				c-0.3-0.3-0.6-0.6-0.8-1l-19.7,5.7L3086.8,120.4z M2438.7,167c-0.7-0.5-1.1-1.2-1.1-2.1c0-0.1,0.1-0.2,0.1-0.4l-130.4-33.9
				c-0.2,0.4-0.4,0.7-0.7,1l83.6,119.7c0.4-0.2,0.8-0.4,1.2-0.4c0.4,0,0.7,0.1,1,0.2l27.6-50L2438.7,167z M2389.1,252.3
				c0.1-0.3,0.3-0.5,0.6-0.7l-57.7-82.5l-25.9-37.1c-0.4,0.2-0.8,0.4-1.2,0.4c-0.7,0-1.4-0.3-1.9-0.8l-68.9,53.6
				c0.2,0.4,0.4,0.8,0.4,1.3c0,0.3-0.1,0.5-0.1,0.7l79.1,33.3L2389.1,252.3z M2928.4,150.8c0.1,0,0.3-0.1,0.4-0.1
				c1.4,0,2.6,1.2,2.6,2.6c0,0.2-0.1,0.3-0.1,0.4l60,17.3c0.2-0.4,0.5-0.8,0.8-1L2888.7,3.4c-0.1,0-0.1,0.1-0.2,0.1l24.6,90.8
				L2928.4,150.8z M2889.9,2.2l192.3,117.2c0.5-0.6,1.2-1,2-1c0,0,0.1,0,0.1,0l16.9-119.4c-1-0.3-1.8-1.1-1.9-2.1l-209.2,4.5
				C2890.1,1.6,2890,1.9,2889.9,2.2z M3101.9-0.9C3101.8-0.9,3101.8-0.9,3101.9-0.9l-17,119.3c0.8,0.2,1.5,0.7,1.8,1.5l101.6-29.4
				c0-0.1-0.1-0.3-0.1-0.4c0-0.6,0.3-1.2,0.6-1.7l-85.4-89.9C3103-1.2,3102.5-0.9,3101.9-0.9z M3097.1,232.7l-101.3-59.1
				c-0.5,0.6-1.2,1.1-2.1,1.1c-0.9,0-1.7-0.5-2.1-1.2l-112.4,57.1c0.1,0.2,0.1,0.4,0.1,0.7l217.6,2.2
				C3097,233.2,3097,232.9,3097.1,232.7z M2632,288c0.4,0,0.7,0.1,1,0.2l58.8-102.5c-0.3-0.2-0.6-0.5-0.7-0.8l-221.2,92.2
				c0.1,0.2,0.1,0.4,0.1,0.7l159.5,12.4C2629.7,288.9,2630.7,288,2632,288z M2062.2,234l-26.3-140.9c-0.1,0-0.1,0-0.2,0
				c0,0-0.1,0-0.1,0L2013.1,239c0.9,0.3,1.6,1,1.8,2l45.4-4.5C2060.3,235.3,2061.1,234.4,2062.2,234z M1803.4,115.7l79.7,120.7
				c0.1-0.1,0.2-0.1,0.4-0.2l-25-116.5l-1.2-5.7c-0.1,0-0.2,0.1-0.3,0.1c-1.3,0-2.3-1-2.5-2.2l-50.2,2
				C1804.3,114.6,1803.9,115.3,1803.4,115.7z M2010.3,240l-151.5-126.6c-0.3,0.3-0.6,0.5-1,0.6l26.2,122.2c0.1,0,0.2-0.1,0.3-0.1
				c1.4,0,2.4,1.1,2.6,2.4l123.1,2.6C2010,240.7,2010.1,240.4,2010.3,240z M1882.6,236.7L1802.9,116c-0.4,0.2-0.7,0.3-1.2,0.3
				c-1.3,0-2.4-1-2.5-2.3l-56.6,0.5c0,0.4-0.2,0.8-0.5,1.2l140.3,121.1C1882.5,236.8,1882.6,236.8,1882.6,236.7z M1859.6,111.5
				C1859.6,111.5,1859.6,111.5,1859.6,111.5c0,0.6-0.2,1-0.5,1.4l151.5,126.6c0.5-0.5,1.1-0.7,1.8-0.7c0,0,0.1,0,0.1,0L2035,93.1
				c-0.9-0.2-1.6-1-1.8-1.9L1859.6,111.5z M2038.2,90.2c0,0.1,0.1,0.3,0.1,0.4c0,0,0,0.1,0,0.1l264.1,38.4c0.3-1.1,1.3-2,2.5-2
				c0.2,0,0.4,0.1,0.5,0.1l40-119.6c-0.6-0.3-1.1-0.8-1.3-1.4L2038.2,90.2z M2349.1,5.2C2349.1,5.2,2349.1,5.3,2349.1,5.2
				c0,0.9-0.4,1.6-1.1,2.1l91.1,155.2c0.3-0.1,0.7-0.2,1.1-0.2c0.3,0,0.5,0.1,0.7,0.2l74.6-175.6c-0.6-0.4-1.1-0.9-1.2-1.7
				L2349.1,5.2z M2519-14c-0.5,0.7-1.2,1.3-2.2,1.3c-0.3,0-0.5-0.1-0.7-0.2l-74.6,175.6c0.4,0.2,0.8,0.6,1,1.1l246.3-96.2
				c-0.1-0.2-0.1-0.4-0.1-0.7c0-0.3,0.1-0.6,0.2-0.8L2519-14z M2693.7,66.3c0,0.2,0.1,0.4,0.1,0.5c0,0.2-0.1,0.4-0.1,0.6l232.8,84.7
				c0.3-0.6,0.8-1,1.4-1.3l-25.2-93.1l-14.7-54.3c-0.1,0-0.3,0.1-0.4,0.1c-1.1,0-1.9-0.6-2.4-1.5L2693.7,66.3z M3171.1,274.6
				c0.5-0.6,1.2-1.1,2-1.1l17.1-181c-0.2,0-0.4-0.1-0.6-0.2l-88.6,139.4c0.6,0.5,1,1.2,1,2c0,0.4-0.1,0.7-0.2,1L3171.1,274.6z
				 M2874.2,231.9c0-0.1-0.1-0.2-0.1-0.3c0-0.1,0.1-0.2,0.1-0.4l-178.5-46.6c-0.4,1-1.3,1.7-2.4,1.7c-0.4,0-0.7-0.1-1-0.2
				l-58.8,102.5c0.4,0.3,0.7,0.7,0.9,1.2L2874.2,231.9z M2465.1,276.7c0.3-0.7,0.8-1.1,1.5-1.4l-26-107.9c-0.1,0-0.2,0.1-0.3,0.1
				c-0.4,0-0.7-0.1-1-0.2l-46.4,84.1c0.7,0.5,1.1,1.2,1.1,2.1c0,0.2-0.1,0.3-0.1,0.5L2465.1,276.7z M2207.1,268.2
				c0.3-1,1.3-1.8,2.4-1.8c0.1,0,0.3,0.1,0.4,0.1l4.6-17.1l16.4-60.5c-0.7-0.3-1.2-0.8-1.5-1.4L2065.4,236c0,0.2,0.1,0.3,0.1,0.5
				c0,0.1,0,0.2-0.1,0.3L2207.1,268.2z"/>
			<path class="st4" d="M1740.1,111.7c1.3,0,2.4,1,2.5,2.3l56.6-0.5c0.1-1.3,1.2-2.4,2.6-2.4c1.3,0,2.3,1,2.5,2.2l50.2-2
				c0.1-1.4,1.2-2.4,2.6-2.4c1.2,0,2.2,0.9,2.5,2l173.5-20.3c0,0,0,0,0,0c0-1.4,1.2-2.6,2.6-2.6c1.1,0,2,0.7,2.4,1.7l305.9-84
				c0-0.1-0.1-0.3-0.1-0.4c0-1.4,1.2-2.6,2.6-2.6c1.2,0,2.2,0.9,2.5,2l165.3-20c0,0,0,0,0,0c0-1.4,1.2-2.6,2.6-2.6
				c1.4,0,2.6,1.2,2.6,2.6c0,0.3-0.1,0.6-0.2,0.8L2689,65.5c0.5-0.7,1.2-1.3,2.2-1.3c1.1,0,1.9,0.6,2.4,1.5l191.5-64.2
				c0-0.2-0.1-0.4-0.1-0.5c0-1.4,1.2-2.6,2.6-2.6c1.3,0,2.4,1,2.5,2.3l209.2-4.5c0.1-1.3,1.2-2.4,2.6-2.4c1.4,0,2.6,1.2,2.6,2.6
				c0,0.6-0.3,1.2-0.6,1.7l85.4,89.9c0.4-0.3,1-0.6,1.6-0.6c1.4,0,2.6,1.2,2.6,2.6c0,1.4-1.2,2.6-2.6,2.6l-17.1,181
				c1.2,0.2,2.1,1.2,2.1,2.5c0,1.4-1.2,2.6-2.6,2.6s-2.6-1.2-2.6-2.6c0-0.4,0.1-0.7,0.2-1l-69.3-39.8c-0.5,0.6-1.2,1.1-2.1,1.1
				c-1.4,0-2.4-1-2.6-2.4l-217.6-2.2c-0.2,1.3-1.2,2.3-2.5,2.3c-1.1,0-2.1-0.7-2.4-1.7l-239.8,57.9c0,0.1,0.1,0.2,0.1,0.3
				c0,1.4-1.2,2.6-2.6,2.6c-1.4,0-2.5-1.1-2.6-2.5L2470,278.3c-0.2,1.2-1.2,2.1-2.5,2.1c-1.4,0-2.6-1.2-2.6-2.6
				c0-0.2,0.1-0.3,0.1-0.5l-71.2-22.7c-0.4,0.9-1.3,1.6-2.4,1.6c-1.3,0-2.3-0.9-2.5-2.1l-176.7,15c0,1.4-1.2,2.5-2.6,2.5
				c-1.4,0-2.6-1.2-2.6-2.6c0-0.1,0-0.2,0.1-0.3l-141.6-31.4c-0.3,1-1.3,1.8-2.4,1.8c-1.3,0-2.3-0.9-2.5-2.1l-45.4,4.5
				c0,1.4-1.2,2.6-2.6,2.6c-1.4,0-2.4-1.1-2.6-2.4l-123.1-2.6c-0.2,1.3-1.2,2.3-2.5,2.3c-1.4,0-2.6-1.2-2.6-2.6c0-0.6,0.2-1,0.5-1.5
				l-140.3-121.1c-0.5,0.4-1.1,0.7-1.8,0.7c-1.4,0-2.6-1.2-2.6-2.6C1737.5,112.8,1738.6,111.7,1740.1,111.7z M2210.4,266.6
				c0.8,0.3,1.4,1,1.6,1.9l176.7-15c0-0.2,0.1-0.5,0.1-0.7l-154.7-65.2c-0.4,0.8-1.3,1.4-2.2,1.4c-0.1,0-0.3-0.1-0.4-0.1l-11.1,40.8
				L2210.4,266.6z M2062.9,233.9c1.1,0,2,0.7,2.4,1.6l164.1-48.6c0-0.2-0.1-0.3-0.1-0.5c0-0.3,0.1-0.6,0.2-0.9L2037.8,92
				c-0.3,0.5-0.8,0.9-1.4,1.1l21.3,114.1l5,26.8C2062.8,233.9,2062.8,233.9,2062.9,233.9z M2038.1,91.5l31.3,15.3l160.4,78.3
				c0.5-0.7,1.2-1.2,2.2-1.2c0.7,0,1.4,0.3,1.9,0.8l0.1-0.1l68.7-53.4c-0.2-0.4-0.4-0.8-0.4-1.3c0,0,0-0.1,0-0.1l-264.1-38.4
				C2038.1,91.3,2038.1,91.4,2038.1,91.5z M2347.6,7.6c-0.3,0.1-0.7,0.2-1.1,0.2c-0.2,0-0.4-0.1-0.5-0.1l-40,119.6
				c0.9,0.4,1.5,1.3,1.5,2.4c0,0.1-0.1,0.2-0.1,0.4l33.5,8.7l96.9,25.2c0.2-0.5,0.5-0.8,0.9-1.1l-24.2-41.3L2347.6,7.6z
				 M2441.1,167.4l26,107.9c0.1,0,0.2-0.1,0.3-0.1c1,0,1.8,0.6,2.3,1.4l221.2-92.2c-0.1-0.2-0.1-0.4-0.1-0.6l-248-18.3
				C2442.5,166.3,2441.9,167,2441.1,167.4z M2695.9,184l178.5,46.6c0.4-1,1.3-1.7,2.4-1.7c0.4,0,0.8,0.1,1.2,0.3l11.7-17.6
				l37.5-56.4c-0.4-0.4-0.7-0.8-0.8-1.4l-230.4,29.6c0,0,0,0,0,0.1C2695.9,183.8,2695.9,183.9,2695.9,184z M2889.1,3.1l103.5,166.7
				c0.3-0.2,0.7-0.3,1.1-0.3c0.9,0,1.6,0.5,2.1,1.1l86.1-48.7c-0.1-0.3-0.2-0.7-0.2-1c0-0.4,0.1-0.8,0.3-1.1l-49.6-30.2L2889.6,2.6
				C2889.4,2.8,2889.3,3,2889.1,3.1z M3098.9,231.3l-14.5-107.8c0,0,0,0-0.1,0c-0.9,0-1.6-0.5-2.1-1.1l-86.1,48.7
				c0.1,0.3,0.2,0.7,0.2,1c0,0.4-0.1,0.7-0.2,1.1l77.9,45.4l23.4,13.6C3097.8,231.7,3098.3,231.4,3098.9,231.3z M2926.4,152.8
				L2693.5,68c-0.4,0.8-1.1,1.3-2,1.4l2,111.7c1.1,0.1,2,0.9,2.3,2l160.7-20.7l69.7-9c0,0,0,0,0-0.1
				C2926.2,153.1,2926.3,153,2926.4,152.8z M2442.8,164.8l248,18.3c0.2-1.1,1.1-1.9,2.2-2.1l-2-111.7c-0.9-0.1-1.7-0.6-2.1-1.4
				l-246.3,96.2C2442.7,164.4,2442.8,164.6,2442.8,164.8z M2991.2,171.6l-60-17.3c-0.4,1-1.3,1.6-2.4,1.6c-0.4,0-0.8-0.1-1.2-0.3
				l-49.2,73.9c0.2,0.2,0.4,0.4,0.5,0.6l112.4-57.1c-0.1-0.3-0.2-0.6-0.2-0.9C2991.1,171.9,2991.2,171.8,2991.2,171.6z
				 M3086.8,120.4c0,0.1,0.1,0.3,0.1,0.4c0,1.2-0.9,2.2-2,2.5l14.5,107.8c0,0,0,0,0.1,0c0.4,0,0.8,0.1,1.1,0.3l88.6-139.4
				c-0.3-0.3-0.6-0.6-0.8-1l-19.7,5.7L3086.8,120.4z M2438.7,167c-0.7-0.5-1.1-1.2-1.1-2.1c0-0.1,0.1-0.2,0.1-0.4l-130.4-33.9
				c-0.2,0.4-0.4,0.7-0.7,1l83.6,119.7c0.4-0.2,0.8-0.4,1.2-0.4c0.4,0,0.7,0.1,1,0.2l27.6-50L2438.7,167z M2389.1,252.3
				c0.1-0.3,0.3-0.5,0.6-0.7l-57.7-82.5l-25.9-37.1c-0.4,0.2-0.8,0.4-1.2,0.4c-0.7,0-1.4-0.3-1.9-0.8l-68.9,53.6
				c0.2,0.4,0.4,0.8,0.4,1.3c0,0.3-0.1,0.5-0.1,0.7l79.1,33.3L2389.1,252.3z M2928.4,150.8c0.1,0,0.3-0.1,0.4-0.1
				c1.4,0,2.6,1.2,2.6,2.6c0,0.2-0.1,0.3-0.1,0.4l60,17.3c0.2-0.4,0.5-0.8,0.8-1L2888.7,3.4c-0.1,0-0.1,0.1-0.2,0.1l24.6,90.8
				L2928.4,150.8z M2889.9,2.2l192.3,117.2c0.5-0.6,1.2-1,2-1c0,0,0.1,0,0.1,0l16.9-119.4c-1-0.3-1.8-1.1-1.9-2.1l-209.2,4.5
				C2890.1,1.6,2890,1.9,2889.9,2.2z M3101.9-0.9C3101.8-0.9,3101.8-0.9,3101.9-0.9l-17,119.3c0.8,0.2,1.5,0.7,1.8,1.5l101.6-29.4
				c0-0.1-0.1-0.3-0.1-0.4c0-0.6,0.3-1.2,0.6-1.7l-85.4-89.9C3103-1.2,3102.5-0.9,3101.9-0.9z M3097.1,232.7l-101.3-59.1
				c-0.5,0.6-1.2,1.1-2.1,1.1c-0.9,0-1.7-0.5-2.1-1.2l-112.4,57.1c0.1,0.2,0.1,0.4,0.1,0.7l217.6,2.2
				C3097,233.2,3097,232.9,3097.1,232.7z M2632,288c0.4,0,0.7,0.1,1,0.2l58.8-102.5c-0.3-0.2-0.6-0.5-0.7-0.8l-221.2,92.2
				c0.1,0.2,0.1,0.4,0.1,0.7l159.5,12.4C2629.7,288.9,2630.7,288,2632,288z M2062.2,234l-26.3-140.9c-0.1,0-0.1,0-0.2,0
				c0,0-0.1,0-0.1,0L2013.1,239c0.9,0.3,1.6,1,1.8,2l45.4-4.5C2060.3,235.3,2061.1,234.4,2062.2,234z M1803.4,115.7l79.7,120.7
				c0.1-0.1,0.2-0.1,0.4-0.2l-25-116.5l-1.2-5.7c-0.1,0-0.2,0.1-0.3,0.1c-1.3,0-2.3-1-2.5-2.2l-50.2,2
				C1804.3,114.6,1803.9,115.3,1803.4,115.7z M2010.3,240l-151.5-126.6c-0.3,0.3-0.6,0.5-1,0.6l26.2,122.2c0.1,0,0.2-0.1,0.3-0.1
				c1.4,0,2.4,1.1,2.6,2.4l123.1,2.6C2010,240.7,2010.1,240.4,2010.3,240z M1882.6,236.7L1802.9,116c-0.4,0.2-0.7,0.3-1.2,0.3
				c-1.3,0-2.4-1-2.5-2.3l-56.6,0.5c0,0.4-0.2,0.8-0.5,1.2l140.3,121.1C1882.5,236.8,1882.6,236.8,1882.6,236.7z M1859.6,111.5
				C1859.6,111.5,1859.6,111.5,1859.6,111.5c0,0.6-0.2,1-0.5,1.4l151.5,126.6c0.5-0.5,1.1-0.7,1.8-0.7c0,0,0.1,0,0.1,0L2035,93.1
				c-0.9-0.2-1.6-1-1.8-1.9L1859.6,111.5z M2038.2,90.2c0,0.1,0.1,0.3,0.1,0.4c0,0,0,0.1,0,0.1l264.1,38.4c0.3-1.1,1.3-2,2.5-2
				c0.2,0,0.4,0.1,0.5,0.1l40-119.6c-0.6-0.3-1.1-0.8-1.3-1.4L2038.2,90.2z M2349.1,5.2C2349.1,5.2,2349.1,5.3,2349.1,5.2
				c0,0.9-0.4,1.6-1.1,2.1l91.1,155.2c0.3-0.1,0.7-0.2,1.1-0.2c0.3,0,0.5,0.1,0.7,0.2l74.6-175.6c-0.6-0.4-1.1-0.9-1.2-1.7
				L2349.1,5.2z M2519-14c-0.5,0.7-1.2,1.3-2.2,1.3c-0.3,0-0.5-0.1-0.7-0.2l-74.6,175.6c0.4,0.2,0.8,0.6,1,1.1l246.3-96.2
				c-0.1-0.2-0.1-0.4-0.1-0.7c0-0.3,0.1-0.6,0.2-0.8L2519-14z M2693.7,66.3c0,0.2,0.1,0.4,0.1,0.5c0,0.2-0.1,0.4-0.1,0.6l232.8,84.7
				c0.3-0.6,0.8-1,1.4-1.3l-25.2-93.1l-14.7-54.3c-0.1,0-0.3,0.1-0.4,0.1c-1.1,0-1.9-0.6-2.4-1.5L2693.7,66.3z M3171.1,274.6
				c0.5-0.6,1.2-1.1,2-1.1l17.1-181c-0.2,0-0.4-0.1-0.6-0.2l-88.6,139.4c0.6,0.5,1,1.2,1,2c0,0.4-0.1,0.7-0.2,1L3171.1,274.6z
				 M2874.2,231.9c0-0.1-0.1-0.2-0.1-0.3c0-0.1,0.1-0.2,0.1-0.4l-178.5-46.6c-0.4,1-1.3,1.7-2.4,1.7c-0.4,0-0.7-0.1-1-0.2
				l-58.8,102.5c0.4,0.3,0.7,0.7,0.9,1.2L2874.2,231.9z M2465.1,276.7c0.3-0.7,0.8-1.1,1.5-1.4l-26-107.9c-0.1,0-0.2,0.1-0.3,0.1
				c-0.4,0-0.7-0.1-1-0.2l-46.4,84.1c0.7,0.5,1.1,1.2,1.1,2.1c0,0.2-0.1,0.3-0.1,0.5L2465.1,276.7z M2207.1,268.2
				c0.3-1,1.3-1.8,2.4-1.8c0.1,0,0.3,0.1,0.4,0.1l4.6-17.1l16.4-60.5c-0.7-0.3-1.2-0.8-1.5-1.4L2065.4,236c0,0.2,0.1,0.3,0.1,0.5
				c0,0.1,0,0.2-0.1,0.3L2207.1,268.2z"/>
		</g>
	</g>
</g>
</svg>
